<?xml version="1.0" encoding="utf-8"?>
<!-- Generator: Adobe Illustrator 23.0.1, SVG Export Plug-In . SVG Version: 6.00 Build 0)  -->
<!DOCTYPE svg PUBLIC "-//W3C//DTD SVG 1.1//EN" "http://www.w3.org/Graphics/SVG/1.1/DTD/svg11.dtd" [
	<!ENTITY ns_extend "http://ns.adobe.com/Extensibility/1.0/">
	<!ENTITY ns_ai "http://ns.adobe.com/AdobeIllustrator/10.0/">
	<!ENTITY ns_graphs "http://ns.adobe.com/Graphs/1.0/">
	<!ENTITY ns_vars "http://ns.adobe.com/Variables/1.0/">
	<!ENTITY ns_imrep "http://ns.adobe.com/ImageReplacement/1.0/">
	<!ENTITY ns_sfw "http://ns.adobe.com/SaveForWeb/1.0/">
	<!ENTITY ns_custom "http://ns.adobe.com/GenericCustomNamespace/1.0/">
	<!ENTITY ns_adobe_xpath "http://ns.adobe.com/XPath/1.0/">
]>
<svg version="1.1" id="Isolation_Mode" xmlns:x="&ns_extend;" xmlns:i="&ns_ai;" xmlns:graph="&ns_graphs;"
	 xmlns="http://www.w3.org/2000/svg" xmlns:xlink="http://www.w3.org/1999/xlink" x="0px" y="0px" width="610px" height="421.9px"
	 viewBox="0 0 610 421.9" style="enable-background:new 0 0 610 421.9;" xml:space="preserve">
<style type="text/css">
	.st0{fill:#FF7555;}
	.st1{fill:#4C1C7B;}
	.st2{fill:#FFFFFF;}
	.st3{fill:#231336;}
	.st4{fill:#2F1C46;}
	.st5{opacity:0.25;}
	.st6{fill:#281E4A;}
	.st7{opacity:0.25;fill:#4C1C7B;}
	.st8{opacity:0.11;fill:#231336;}
</style>
<metadata>
	<sfw  xmlns="&ns_sfw;">
		<slices></slices>
		<sliceSourceBounds  bottomLeftOrigin="true" height="421.9" width="610" x="2642.2" y="-1079.4"></sliceSourceBounds>
	</sfw>
</metadata>
<g>
	<polygon class="st0" points="156.8,238.4 130.8,239.6 131,246.2 124.8,246.2 124.8,271.4 225.2,254.2 225.2,231.8 197.2,227.6 	"/>
	<polygon class="st0" points="549.9,242.2 541.7,233.2 529.7,228.4 523,222.5 518.2,221.2 510.7,213.2 501.9,212.6 497.4,215 
		497.6,219.6 494.7,221.2 491.8,216.1 486.2,210.8 480.8,211.3 475.8,214 464.6,206.8 449.4,201.1 443.2,203.2 435.5,202.4 
		431.7,199.8 419.7,199.5 413.6,201.4 409.1,199.2 395.5,199 385.8,200 377.3,197.6 370.1,197.6 353,197.4 342.9,194 327.9,196.1 
		315.7,189.7 299.7,189.1 285.8,195 275.4,221.4 332.8,255.1 557.4,257.5 	"/>
	<g>
		<polygon class="st1" points="423.2,218.9 423.2,210 387.4,206.8 330,208.4 329.7,217 387,215.9 		"/>
		<rect x="334.7" y="211.1" class="st2" width="2.3" height="2.9"/>
		<rect x="348.5" y="210.5" class="st3" width="2.3" height="2.9"/>
		<rect x="362.3" y="210" class="st2" width="2.3" height="2.9"/>
		<rect x="376.1" y="209.5" class="st3" width="2.3" height="2.9"/>
		
			<rect x="417" y="212.3" transform="matrix(-1 -4.479762e-11 4.479762e-11 -1 836.3059 427.5095)" class="st3" width="2.3" height="2.9"/>
		
			<rect x="393.2" y="210.2" transform="matrix(-1 -4.479762e-11 4.479762e-11 -1 788.6445 423.3885)" class="st2" width="2.3" height="2.9"/>
		
			<rect x="405.1" y="211" transform="matrix(-1 -4.479762e-11 4.479762e-11 -1 812.4752 424.8652)" class="st0" width="2.3" height="2.9"/>
	</g>
	<polygon class="st1" points="277.1,114.4 293.9,105.4 310.8,114.4 	"/>
	<path class="st1" d="M310.8,117.2h-33.7v20.1c4.3,5.1,10.3,8.3,16.9,8.3s12.5-3.2,16.9-8.3V117.2z"/>
	<rect x="273.7" y="114.1" class="st0" width="40.5" height="3.5"/>
	<g>
		
			<rect x="311.2" y="137.1" transform="matrix(0.999 -4.566651e-02 4.566651e-02 0.999 -7.5216 14.4386)" class="st2" width="2" height="69.4"/>
	</g>
	<g>
		
			<rect x="241.3" y="170.8" transform="matrix(4.589489e-02 -0.9989 0.9989 4.589489e-02 91.6612 439.6497)" class="st2" width="69.4" height="2"/>
	</g>
	<g>
		<rect x="293.1" y="137.2" class="st2" width="2" height="72.1"/>
	</g>
	<g>
		<rect x="277.5" y="175.3" class="st2" width="16.1" height="2"/>
	</g>
	<g>
		<rect x="293.9" y="175.3" class="st2" width="16.1" height="2"/>
	</g>
	<g>
		<polygon class="st2" points="314.1,212.4 292.5,176 309.7,136.8 311.6,137.6 294.8,175.9 315.8,211.3 		"/>
	</g>
	<g>
		<polygon class="st2" points="291.6,212.4 289.9,211.3 311,175.9 294.1,137.6 296,136.8 313.2,176 		"/>
	</g>
	<g>
		<polygon class="st2" points="296.2,212.4 274.6,176 291.8,136.8 293.6,137.6 276.8,175.9 297.9,211.3 		"/>
	</g>
	<g>
		<polygon class="st2" points="273.7,212.4 271.9,211.3 293,175.9 276.2,137.6 278,136.8 295.3,176 		"/>
	</g>
	<g>
		<rect x="331.9" y="221.6" class="st1" width="122.7" height="32.8"/>
		
			<rect x="454.6" y="221.6" transform="matrix(-1 -1.224647e-16 1.224647e-16 -1 922.1135 475.9307)" class="st3" width="13" height="32.8"/>
		<g>
			<g>
				<rect x="330.9" y="220.6" class="st4" width="2" height="31.5"/>
			</g>
			<g>
				<rect x="348.3" y="220.6" class="st4" width="2" height="31.5"/>
			</g>
			<g>
				<rect x="365.8" y="220.6" class="st4" width="2" height="31.5"/>
			</g>
			<g>
				<rect x="383.3" y="220.6" class="st4" width="2" height="31.5"/>
			</g>
			<g>
				<rect x="400.8" y="220.6" class="st4" width="2" height="31.5"/>
			</g>
			<g>
				<rect x="418.3" y="220.6" class="st4" width="2" height="31.5"/>
			</g>
			<g>
				<rect x="435.7" y="220.6" class="st4" width="2" height="31.5"/>
			</g>
			<g>
				<rect x="453.2" y="220.6" class="st4" width="2" height="31.5"/>
			</g>
		</g>
		<rect x="335.2" y="229.7" class="st3" width="10.9" height="5.2"/>
		<rect x="352.6" y="229.7" class="st2" width="10.9" height="5.2"/>
		<rect x="370.1" y="229.7" class="st0" width="10.9" height="5.2"/>
		<rect x="387.5" y="229.7" class="st2" width="10.9" height="5.2"/>
		<rect x="405" y="229.7" class="st3" width="10.9" height="5.2"/>
		<rect x="422.4" y="229.7" class="st2" width="10.9" height="5.2"/>
		<rect x="439.9" y="229.7" class="st0" width="10.9" height="5.2"/>
		<rect x="335.2" y="241.8" class="st3" width="10.9" height="5.2"/>
		<rect x="352.6" y="241.8" class="st0" width="10.9" height="5.2"/>
		<rect x="370.1" y="241.8" class="st3" width="10.9" height="5.2"/>
		<rect x="387.5" y="241.8" class="st3" width="10.9" height="5.2"/>
		<rect x="405" y="241.8" class="st2" width="10.9" height="5.2"/>
		<rect x="422.4" y="241.8" class="st3" width="10.9" height="5.2"/>
		<rect x="439.9" y="241.8" class="st3" width="10.9" height="5.2"/>
		<rect x="458.5" y="229.7" class="st1" width="6.9" height="5.2"/>
		<rect x="458.5" y="241.8" class="st1" width="6.9" height="5.2"/>
	</g>
	<g>
		<rect x="222.1" y="206.5" class="st1" width="55" height="56.6"/>
		
			<rect x="277.1" y="206.5" transform="matrix(-1 -1.224647e-16 1.224647e-16 -1 564.7684 469.4953)" class="st3" width="10.6" height="56.6"/>
		<rect x="287.7" y="206.5" class="st1" width="25.3" height="56.6"/>
		
			<rect x="313" y="206.5" transform="matrix(-1 -1.224647e-16 1.224647e-16 -1 645.0021 469.4953)" class="st3" width="19" height="56.6"/>
		<rect x="227.5" y="212.6" class="st3" width="14.3" height="5.1"/>
		<rect x="244.7" y="212.6" class="st2" width="15.2" height="5.1"/>
		<rect x="251.7" y="198.2" class="st1" width="21.6" height="8.8"/>
		<rect x="227.5" y="221.5" class="st3" width="26.4" height="5.1"/>
		<rect x="256.9" y="221.5" class="st3" width="15.2" height="5.1"/>
		<rect x="227.5" y="230.3" class="st2" width="14.3" height="5.1"/>
		<rect x="244.7" y="230.3" class="st0" width="15.2" height="5.1"/>
		<rect x="227.5" y="239.2" class="st0" width="26.4" height="5.1"/>
		<rect x="292.1" y="212.6" class="st3" width="9.3" height="5.1"/>
		<rect x="280.1" y="212.6" class="st1" width="4.9" height="5.1"/>
		<rect x="280.1" y="221.4" class="st1" width="4.9" height="5.1"/>
		<rect x="280.1" y="230.3" class="st1" width="4.9" height="5.1"/>
		<rect x="280.1" y="239.1" class="st1" width="4.9" height="5.1"/>
		<rect x="317.2" y="212.6" class="st1" width="10.7" height="5.1"/>
		<rect x="317.2" y="221.4" class="st1" width="10.7" height="5.1"/>
		<rect x="317.2" y="230.3" class="st1" width="10.7" height="5.1"/>
		<rect x="317.2" y="239.1" class="st1" width="10.7" height="5.1"/>
		<rect x="292.1" y="221.5" class="st0" width="17.2" height="5.1"/>
		<rect x="292.1" y="230.3" class="st2" width="9.3" height="5.1"/>
		<rect x="292.1" y="239.2" class="st0" width="17.2" height="5.1"/>
		<rect x="256.9" y="239.2" class="st3" width="15.2" height="5.1"/>
	</g>
	<polygon class="st1" points="104.4,284.4 124.1,268.1 171.6,251.3 196.4,242.8 207.9,246.2 224.4,254.5 260.7,253.5 277.5,259.6 
		308.7,262.5 327.1,262.3 332,250.2 356.5,250.2 380.8,250.2 439.2,252.4 470.4,251.9 518.2,254.3 539,252.9 542.5,249.4 
		556.3,248.6 565.1,247.6 571.8,250.2 576.6,262 585.7,267.3 588.1,276.7 610,281.2 581.2,282 563.8,283.3 564.9,286 515.5,285.2 
		515.3,287.9 382.6,289.5 312.2,290.5 236.7,291.3 172.1,291.3 121.4,288.9 74.9,288.2 	"/>
	<g class="st5">
		<polygon class="st2" points="184.1,283.7 202.5,279.4 241.5,274.1 266.8,268.8 331.7,264.5 327.8,263.6 327.7,264 308.7,262.4 
			277.5,259.4 260.7,253.3 230.9,254.2 209.7,256.5 212.2,262.1 198.3,269 169.7,276.2 141.4,289.7 144.4,289.9 156.4,286.1 		"/>
		<polygon class="st2" points="377.8,275.2 372.8,267.4 376.8,261.3 375.1,250.1 362,250.1 365.3,269.3 366.1,285.9 367.9,289.5 
			371.8,289.5 375.4,282.4 		"/>
		<polygon class="st2" points="543.3,277.8 540.9,264.2 535,261 526.7,260.8 520.1,266.1 517.9,269.6 515.3,267.7 511,274.6 
			511.3,280.2 513.9,287.7 515.3,287.7 515.5,285.1 549.7,285.6 549.1,281 		"/>
		<polygon class="st2" points="571,266.6 565.9,260 563.5,254.4 553.1,252.2 545.4,252 546.2,260.8 553.9,263.4 557.7,272.2 
			559,277.6 562.5,281 563.8,283.2 579.8,282 573.4,277.8 		"/>
		<polygon class="st2" points="322.9,279.7 320.7,272.2 311.1,270.6 307.7,273.8 302.9,270.9 293,278.6 287.9,282.7 268.2,281.6 
			257.2,282.9 251.1,277.3 238.8,277.8 234.8,284.3 224.4,286.7 214.5,291.2 236.7,291.2 312.2,290.4 338.1,290 330.9,281.9 		"/>
		<polygon class="st2" points="495.9,286.9 497.5,275.4 487.7,270.1 479.1,268.8 473.2,271.7 457.2,272.5 399.3,274.6 388.1,274.6 
			394.5,281.6 389.7,288.8 		"/>
		<polygon class="st2" points="449,257.8 438,258.8 431.6,258.6 431.1,263.6 434.6,267.6 441.3,269.8 450.1,269.8 459.4,267.4 
			463.4,266.6 		"/>
		<polygon class="st2" points="490.7,255.6 500,262.8 503,268.9 500,277.2 503.5,282 509.9,283.6 507.5,277.5 510.2,267.9 
			506.4,261.5 495,255.9 		"/>
	</g>
	<polygon class="st1" points="564.6,249.4 561.4,239.8 541.4,238.8 517.9,234.5 487.5,230.2 496,246.8 501.9,248.9 495.8,253.5 
		508.9,257.2 	"/>
	<rect x="328.6" y="178.3" class="st1" width="29.1" height="23.8"/>
	
		<rect x="357.7" y="178.3" transform="matrix(-1 -1.224647e-16 1.224647e-16 -1 719.5833 380.3854)" class="st3" width="4.2" height="23.8"/>
	<rect x="361.9" y="178.3" class="st1" width="9" height="23.8"/>
	<polygon class="st3" points="405.6,202.1 371.1,202.1 371.1,178.3 405.6,185.1 	"/>
	<polygon class="st1" points="405.6,202.1 431.3,208.1 431.3,184.4 405.6,185.1 	"/>
	<polygon class="st3" points="464.3,208.8 431.3,208.1 431.3,184.4 464.3,191.8 	"/>
	<g>
		<rect x="333.6" y="183.9" class="st2" width="2.2" height="4.6"/>
		<rect x="341.6" y="183.9" class="st3" width="2.2" height="4.6"/>
		<rect x="349.7" y="183.9" class="st3" width="2.2" height="4.6"/>
		<rect x="333.6" y="191.4" class="st0" width="2.2" height="4.6"/>
		<rect x="341.6" y="191.4" class="st2" width="2.2" height="4.6"/>
		<rect x="349.7" y="191.4" class="st3" width="2.2" height="4.6"/>
	</g>
	<g>
		<rect x="378.4" y="186.9" class="st1" width="2" height="4.1"/>
		<rect x="385.4" y="186.9" class="st1" width="2" height="4.1"/>
		<rect x="392.5" y="186.9" class="st0" width="2" height="4.1"/>
		<rect x="378.4" y="193.4" class="st1" width="2" height="4.1"/>
		<rect x="385.4" y="193.4" class="st2" width="2" height="4.1"/>
		<rect x="392.5" y="193.4" class="st1" width="2" height="4.1"/>
	</g>
	<g>
		<rect x="412.8" y="190.2" class="st3" width="1.6" height="3.4"/>
		<rect x="418.7" y="190.2" class="st2" width="1.6" height="3.4"/>
		<rect x="424.6" y="190.2" class="st0" width="1.6" height="3.4"/>
		<rect x="412.8" y="195.7" class="st3" width="1.6" height="3.4"/>
		<rect x="418.7" y="195.7" class="st0" width="1.6" height="3.4"/>
		<rect x="424.6" y="195.7" class="st3" width="1.6" height="3.4"/>
	</g>
	<g>
		<rect x="445.1" y="194.6" class="st0" width="1.6" height="3.4"/>
		<rect x="451" y="194.6" class="st2" width="1.6" height="3.4"/>
		<rect x="456.9" y="194.6" class="st1" width="1.6" height="3.4"/>
		<rect x="445.1" y="200.1" class="st2" width="1.6" height="3.4"/>
		<rect x="451" y="200.1" class="st1" width="1.6" height="3.4"/>
		<rect x="456.9" y="200.1" class="st0" width="1.6" height="3.4"/>
	</g>
	<rect x="527.1" y="244" class="st3" width="1.5" height="3.1"/>
	<rect x="532.6" y="244" class="st3" width="1.5" height="3.1"/>
	<rect x="538" y="244" class="st3" width="1.5" height="3.1"/>
	<g>
		<rect x="543.5" y="244" class="st3" width="1.5" height="3.1"/>
		<rect x="548.9" y="244" class="st3" width="1.5" height="3.1"/>
		<rect x="554.4" y="244" class="st3" width="1.5" height="3.1"/>
	</g>
	<rect x="420.1" y="174.8" class="st1" width="9.4" height="12.6"/>
	<rect x="422.1" y="164" class="st2" width="3.1" height="10.7"/>
	<polygon class="st6" points="535.2,311.2 527.2,305.4 522.1,305.4 521.8,302.1 516.7,301.8 512.7,305 503.6,305 495.3,307.9 
		490.9,312.3 481.8,313.8 541,314.8 	"/>
	<g>
		<rect x="575.3" y="238.8" class="st2" width="1" height="22.7"/>
	</g>
	<g>
		<rect x="566.5" y="228.4" class="st2" width="1" height="22.7"/>
	</g>
	<g>
		<rect x="544.1" y="218.2" class="st2" width="1" height="22.7"/>
	</g>
	<g>
		<rect x="535.6" y="202.9" class="st2" width="1" height="32.7"/>
	</g>
	<g>
		<rect x="474.5" y="184.7" class="st2" width="1" height="31.4"/>
	</g>
	<g>
		<rect x="373.2" y="165.8" class="st4" width="1" height="25.2"/>
	</g>
	<g>
		<polygon class="st3" points="154.1,220.8 165.9,211.2 177.6,220.8 		"/>
		<polygon class="st1" points="177.3,220.8 165.9,211.2 200.3,211.2 212,220.8 		"/>
		<rect x="154.1" y="220.8" class="st3" width="23.3" height="19.6"/>
		<rect x="177.4" y="220.8" class="st1" width="34.6" height="19.6"/>
		<rect x="181.9" y="223.6" class="st2" width="1.7" height="4.3"/>
		<rect x="188" y="223.6" class="st3" width="1.7" height="4.3"/>
		<rect x="194.2" y="223.6" class="st2" width="1.7" height="4.3"/>
		<rect x="200.3" y="223.6" class="st0" width="1.7" height="4.3"/>
		<rect x="206.5" y="223.6" class="st2" width="1.7" height="4.3"/>
		
			<rect x="164.3" y="215.9" transform="matrix(6.123234e-17 -1 1 6.123234e-17 -52.8408 383.2215)" class="st1" width="1.7" height="4.3"/>
		
			<rect x="158.4" y="228.5" transform="matrix(6.123234e-17 -1 1 6.123234e-17 -68.62 398.7339)" class="st1" width="13.4" height="10.4"/>
		<rect x="181.9" y="230.9" class="st0" width="1.7" height="4.3"/>
		<rect x="188" y="230.9" class="st2" width="1.7" height="4.3"/>
		<rect x="194.2" y="230.9" class="st3" width="1.7" height="4.3"/>
		<rect x="200.3" y="230.9" class="st3" width="1.7" height="4.3"/>
		<rect x="206.5" y="230.9" class="st3" width="1.7" height="4.3"/>
	</g>
	<polygon class="st1" points="146.5,240.8 135.6,240.8 137.9,121.2 144.2,121.2 	"/>
	<polygon class="st7" points="154,244.2 142,248 124.6,250.9 124.6,261.1 140.6,257.1 150.5,249 	"/>
	<polygon class="st7" points="485.9,229.8 478.4,230.4 473.1,233.8 478.4,234.9 480.6,237.6 481.4,243.4 485.1,245.6 492,249 
		496.3,249.3 	"/>
	<polygon class="st7" points="441.6,213 448.6,211.4 458.4,212.2 463.8,214.6 450.2,214.6 	"/>
	<polygon class="st7" points="511,228 507.2,222.6 506.4,217.6 499.5,214.6 499,219.7 494.7,221.2 500.8,225.6 506.2,229.8 	"/>
	<polygon class="st7" points="173.7,245.6 165.5,245.3 160.4,248 156.7,252.3 167.9,249.8 	"/>
	<g>
		<g>
			<path class="st0" d="M535.8,347.3c-1,0-1.8-0.1-2.7-0.2l0.4-3c0.7,0.1,1.5,0.1,2.3,0.1V347.3z"/>
		</g>
		<g>
			<path class="st0" d="M507.2,347.3c-1.9,0-3.5-0.2-5-0.6l0.8-2.9c1.2,0.4,2.6,0.5,4.2,0.5c0.2,0,0.4,0,0.6,0l0.1,3
				C507.7,347.3,507.5,347.3,507.2,347.3z M477,347.2c-2.6-0.2-4.2-0.8-5.6-1.4l1.2-2.8c1.2,0.5,2.5,1,4.6,1.2L477,347.2z
				 M482.6,346.9L482,344c1.2-0.3,2.2-0.7,3.2-1.1c0.5-0.2,1-0.4,1.6-0.6l1,2.8c-0.5,0.2-1,0.4-1.4,0.6
				C485.3,346.1,484.2,346.6,482.6,346.9z M513.5,346.2l-1.1-2.8c0.5-0.2,0.9-0.4,1.3-0.5c1.1-0.5,2.3-1,3.9-1.3l0.6,2.9
				c-1.3,0.3-2.3,0.7-3.3,1.1C514.5,345.8,514,346,513.5,346.2z M527.7,345.5c-1.3-0.6-2.6-1-4.6-1.2l0.2-3c2.5,0.2,4.1,0.8,5.6,1.4
				L527.7,345.5z M497.2,344.8c-1.3-0.4-2.6-0.6-4.3-0.6l-0.5,0l-0.1-3l0.5,0c2,0,3.6,0.2,5.2,0.7L497.2,344.8z"/>
		</g>
		<g>
			<path class="st0" d="M466.6,344.4c-0.7-0.1-1.5-0.1-2.3-0.1v-3c1,0,1.9,0.1,2.7,0.2L466.6,344.4z"/>
		</g>
	</g>
	<g>
		<g>
			<path class="st0" d="M487.9,325.8c-0.9-0.2-1.7-0.4-2.6-0.8l1.1-2.8c0.8,0.3,1.4,0.5,2.1,0.7L487.9,325.8z"/>
		</g>
		<g>
			<path class="st0" d="M434.6,326.1c-1.4,0-2.6-0.1-3.7-0.3l0.6-2.9c0.9,0.2,1.9,0.3,3.1,0.3c0.4,0,0.8,0,1.2,0l0.2,3
				C435.6,326.1,435.1,326.1,434.6,326.1z M463.2,326.1c-1.9,0-3.5-0.2-5.1-0.7l0.9-2.9c1.2,0.4,2.6,0.5,4.2,0.6L463.2,326.1z
				 M468.2,325.5l-0.8-2.9c0.9-0.2,1.6-0.6,2.4-0.9c0.6-0.2,1.2-0.5,1.9-0.7l1,2.8c-0.6,0.2-1.1,0.4-1.7,0.7
				C470.2,324.8,469.3,325.2,468.2,325.5z M441,325l-1.1-2.8c0.4-0.2,0.8-0.3,1.2-0.5c1-0.4,2-0.9,3.3-1.2l0.7,2.9
				c-1.1,0.3-1.9,0.6-2.9,1C441.9,324.7,441.5,324.9,441,325z M413.8,324.5l-1.2-2.7c1.4-0.6,2.7-1.2,4.9-1.5l0.4,3
				C416.1,323.5,415,324,413.8,324.5z M426.3,324.2c-1.1-0.4-2.2-0.9-4.1-1.1l0.3-3c2.2,0.2,3.7,0.7,5,1.3L426.3,324.2z
				 M453.7,323.8c-1.3-0.4-2.6-0.6-4.2-0.7l0.1-3c1.9,0,3.5,0.3,5,0.8L453.7,323.8z M481.1,323.4c-1-0.2-2.2-0.4-3.5-0.4
				c-0.3,0-0.5,0-0.7,0l-0.1-3c0.3,0,0.6,0,0.8,0c1.6,0,2.9,0.1,4.2,0.4L481.1,323.4z"/>
		</g>
		<g>
			<path class="st0" d="M406,326.1v-3c0.8,0,1.6,0,2.3-0.1l0.4,3C407.9,326.1,407,326.1,406,326.1z"/>
		</g>
	</g>
	<g>
		<g>
			<path class="st0" d="M96.7,313.2c-0.9-0.2-1.7-0.4-2.6-0.8l1.1-2.8c0.8,0.3,1.4,0.5,2.1,0.7L96.7,313.2z"/>
		</g>
		<g>
			<path class="st0" d="M72.2,313.6C72.1,313.6,72.1,313.6,72.2,313.6c-1.7,0-3.2-0.2-4.5-0.5l0.7-2.9c1.1,0.3,2.4,0.4,3.8,0.4
				c0.1,0,0.3,0,0.4,0l0.1,3C72.5,313.6,72.3,313.6,72.2,313.6z M77.5,312.8l-0.9-2.9c0.7-0.2,1.4-0.5,2-0.8
				c0.7-0.3,1.4-0.6,2.2-0.9l0.9,2.9c-0.7,0.2-1.3,0.5-2,0.8C79.1,312.2,78.4,312.5,77.5,312.8z M51,312l-1.2-2.8l0.2-0.1
				c1.3-0.5,2.6-1.1,4.5-1.4l0.5,3c-1.6,0.3-2.6,0.7-3.8,1.2L51,312z M63.2,311.4c-0.9-0.4-2.2-0.8-4-0.9l0.2-3
				c2.2,0.2,3.7,0.6,4.9,1.1L63.2,311.4z M90,310.9c-1.1-0.3-2.3-0.4-3.6-0.4c-0.2,0-0.3,0-0.5,0l-0.1-3c0.2,0,0.4,0,0.6,0
				c1.6,0,3,0.1,4.3,0.5L90,310.9z"/>
		</g>
		<g>
			<path class="st0" d="M43.5,313.6v-3c0.8,0,1.6,0,2.3-0.1l0.4,3C45.3,313.5,44.4,313.6,43.5,313.6z"/>
		</g>
	</g>
	<g>
		<g>
			<path class="st0" d="M258.9,317.4c-0.9-0.2-1.7-0.4-2.6-0.8l1.1-2.8c0.8,0.3,1.4,0.5,2.1,0.7L258.9,317.4z"/>
		</g>
		<g>
			<path class="st0" d="M234.3,317.7C234.3,317.7,234.3,317.7,234.3,317.7c-1.7,0-3.2-0.2-4.5-0.5l0.7-2.9c1.1,0.3,2.4,0.4,3.8,0.4
				c0.1,0,0.3,0,0.4,0l0.1,3C234.6,317.7,234.5,317.7,234.3,317.7z M239.7,317l-0.9-2.9c0.7-0.2,1.4-0.5,2-0.8
				c0.7-0.3,1.4-0.6,2.2-0.9l0.9,2.9c-0.7,0.2-1.3,0.5-2,0.8C241.3,316.4,240.6,316.7,239.7,317z M213.2,316.2l-1.2-2.8l0.2-0.1
				c1.3-0.5,2.6-1.1,4.5-1.4l0.5,3c-1.6,0.3-2.6,0.7-3.8,1.2L213.2,316.2z M225.4,315.6c-0.9-0.4-2.2-0.8-4-0.9l0.2-3
				c2.2,0.2,3.7,0.6,4.9,1.1L225.4,315.6z M252.2,315c-1.1-0.3-2.3-0.4-3.6-0.4c-0.2,0-0.3,0-0.5,0l-0.1-3c0.2,0,0.4,0,0.6,0
				c1.6,0,3,0.1,4.3,0.5L252.2,315z"/>
		</g>
		<g>
			<path class="st0" d="M205.6,317.7v-3c0.8,0,1.6,0,2.3-0.1l0.4,3C207.5,317.7,206.6,317.7,205.6,317.7z"/>
		</g>
	</g>
	<g>
		<g>
			<path class="st0" d="M496.7,386.1c-0.9-0.2-1.7-0.4-2.6-0.8l1.1-2.8c0.8,0.3,1.4,0.5,2.1,0.7L496.7,386.1z"/>
		</g>
		<g>
			<path class="st0" d="M472.2,386.5C472.1,386.5,472.1,386.5,472.2,386.5c-1.7,0-3.2-0.2-4.5-0.5l0.7-2.9c1.1,0.3,2.4,0.4,3.8,0.4
				c0.1,0,0.3,0,0.4,0l0.1,3C472.5,386.5,472.3,386.5,472.2,386.5z M477.5,385.7l-0.9-2.9c0.7-0.2,1.4-0.5,2-0.8
				c0.7-0.3,1.4-0.6,2.2-0.9l0.9,2.9c-0.7,0.2-1.3,0.5-2,0.8C479.1,385.1,478.4,385.5,477.5,385.7z M451,384.9l-1.2-2.8l0.2-0.1
				c1.3-0.5,2.6-1.1,4.5-1.4l0.5,3c-1.6,0.3-2.6,0.7-3.8,1.2L451,384.9z M463.2,384.4c-0.9-0.4-2.2-0.8-4-0.9l0.2-3
				c2.2,0.2,3.7,0.6,4.9,1.1L463.2,384.4z M490,383.8c-1.1-0.3-2.3-0.4-3.6-0.4c-0.2,0-0.3,0-0.5,0l-0.1-3c0.2,0,0.4,0,0.6,0
				c1.6,0,3,0.1,4.3,0.5L490,383.8z"/>
		</g>
		<g>
			<path class="st0" d="M443.5,386.5v-3c0.8,0,1.6,0,2.3-0.1l0.4,3C445.3,386.4,444.4,386.5,443.5,386.5z"/>
		</g>
	</g>
	<g>
		<g>
			<path class="st0" d="M423.6,421.5c-0.9-0.2-1.7-0.4-2.6-0.8l1.1-2.8c0.8,0.3,1.4,0.5,2.1,0.7L423.6,421.5z"/>
		</g>
		<g>
			<path class="st0" d="M399,421.9c-1.6,0-3.1-0.2-4.4-0.5l0.7-2.9c1.1,0.3,2.3,0.4,3.7,0.4l0.5,0l0.1,3L399,421.9z M404.4,421.1
				l-0.9-2.9c0.7-0.2,1.3-0.5,2-0.8c0.7-0.3,1.4-0.6,2.2-0.9l0.9,2.9c-0.7,0.2-1.3,0.5-2,0.8C406,420.6,405.3,420.9,404.4,421.1z
				 M377.9,420.3l-1.2-2.8l0.2-0.1c1.3-0.5,2.6-1.1,4.5-1.4l0.5,3c-1.6,0.3-2.7,0.7-3.8,1.2L377.9,420.3z M390.1,419.8
				c-0.9-0.4-2.2-0.8-4-0.9l0.2-3c2.2,0.2,3.7,0.6,4.9,1.1L390.1,419.8z M416.9,419.2c-1.1-0.3-2.3-0.4-3.6-0.4c-0.2,0-0.3,0-0.5,0
				l-0.1-3c0.2,0,0.4,0,0.6,0c1.6,0,3,0.1,4.3,0.5L416.9,419.2z"/>
		</g>
		<g>
			<path class="st0" d="M370.3,421.9v-3c0.8,0,1.6,0,2.3-0.1l0.4,3C372.2,421.9,371.3,421.9,370.3,421.9z"/>
		</g>
	</g>
	<g>
		<g>
			<path class="st0" d="M577.6,327.4l-0.4-3c0.8-0.1,1.7-0.2,2.7-0.2v3C579.1,327.3,578.3,327.3,577.6,327.4z"/>
		</g>
		<g>
			<path class="st0" d="M535.3,330.3c-2.3-0.2-3.8-0.7-5.1-1.2l1.1-2.8c1.2,0.5,2.4,0.9,4.2,1L535.3,330.3z M563.2,330.2
				c-2.2-0.2-3.6-0.8-5-1.4l1.2-2.8c1.2,0.5,2.4,1,4.2,1.2L563.2,330.2z M568.4,330.2l-0.4-3c1.8-0.2,2.9-0.7,4.2-1.3l0.6,1.4
				l0.6,1.4C572,329.3,570.6,329.9,568.4,330.2z M540.4,330.1l-0.5-3c1.5-0.3,2.5-0.7,3.6-1.2l0.6-0.3l1.2,2.8l-0.6,0.2
				C543.5,329.2,542.2,329.7,540.4,330.1z M512.5,329.9l-0.6-2.9c1.2-0.3,2.1-0.7,3.1-1.1c0.4-0.2,0.8-0.3,1.2-0.5l1.1,2.8
				c-0.4,0.1-0.7,0.3-1.1,0.5C515.1,329.1,514,329.6,512.5,329.9z M525.9,327.5c-1-0.2-2-0.3-3.2-0.3c-0.4,0-0.8,0-1.2,0l-0.2-3
				c0.4,0,0.9,0,1.4,0c1.4,0,2.6,0.1,3.8,0.3L525.9,327.5z M554,327.5c-0.8-0.1-1.7-0.2-2.7-0.2c-0.6,0-1.2,0-1.8,0.1l-0.3-3
				c0.6-0.1,1.3-0.1,2.1-0.1c1.1,0,2.2,0.1,3.1,0.2L554,327.5z"/>
		</g>
		<g>
			<path class="st0" d="M507.1,330.3c-1-0.1-1.9-0.2-2.7-0.3l0.6-2.9c0.7,0.1,1.4,0.2,2.2,0.3L507.1,330.3z"/>
		</g>
	</g>
	<g>
		<g>
			<path class="st0" d="M198.3,391.9c-0.9,0-1.8,0-2.6-0.1l0.2-3c0.8,0.1,1.6,0.1,2.4,0.1V391.9z"/>
		</g>
		<g>
			<path class="st0" d="M152,391.9c-1.7,0-3.2-0.1-4.6-0.3l0.4-3c1.3,0.2,2.6,0.3,4.2,0.3l0.5,0l0,3L152,391.9z M104.5,391.8
				c-1.9-0.1-3.6-0.3-5.2-0.6l0.7-2.9c1.4,0.3,2.9,0.5,4.6,0.6L104.5,391.8z M109.7,391.7l-0.3-3c1.6-0.2,3.1-0.5,4.5-1l1,2.8
				C113.1,391.1,111.5,391.5,109.7,391.7z M157.8,391.4l-0.6-2.9c1.8-0.3,3.3-0.9,4.4-1.4l1.1,2.8
				C161.5,390.4,159.9,391,157.8,391.4z M190.5,390.9c-1.7-0.5-3-1.1-4.3-1.6l-0.5-0.2l1.2-2.8l0.5,0.2c1.3,0.6,2.5,1.1,4,1.5
				L190.5,390.9z M142.4,390.3c-0.9-0.3-1.7-0.7-2.4-1c-0.7-0.3-1.4-0.6-2.1-0.9l1.1-2.8c0.8,0.3,1.5,0.6,2.3,0.9
				c0.8,0.3,1.5,0.6,2.3,0.9L142.4,390.3z M94.3,389.6l-0.7-0.3c-1.2-0.5-2.4-1-3.8-1.4l0.8-2.9c1.6,0.5,2.9,1,4.1,1.6l0.7,0.3
				L94.3,389.6z M119.5,388.6l-1.1-2.8c1.3-0.5,2.9-1.1,5-1.5l0.5,3C122,387.7,120.6,388.2,119.5,388.6z M167.3,388l-0.9-2.8
				c1.7-0.5,3.3-0.9,5.1-1.1l0.3,3C170.2,387.2,168.8,387.6,167.3,388z M181.2,387.5c-1.4-0.3-2.9-0.5-4.6-0.6l0.1-3
				c1.9,0.1,3.6,0.3,5.2,0.7L181.2,387.5z M133.3,387.2c-1.3-0.2-2.8-0.3-4.4-0.3l-0.3,0l0-3l0.4,0c1.8,0,3.3,0.1,4.8,0.3
				L133.3,387.2z"/>
		</g>
		<g>
			<path class="st0" d="M85.1,387c-0.7-0.1-1.6-0.1-2.4-0.1v-3c0.9,0,1.8,0,2.6,0.1L85.1,387z"/>
		</g>
	</g>
	<g>
		<g>
			<path class="st0" d="M132.5,342c-0.9-0.2-1.7-0.4-2.6-0.7l0.9-2.8c0.8,0.2,1.5,0.4,2.2,0.6L132.5,342z"/>
		</g>
		<g>
			<path class="st0" d="M46.3,342.6c-0.3,0-0.7,0-1,0l0.1-3c0.3,0,0.6,0,1,0c1.3,0,2.6-0.1,3.7-0.2l0.4,3
				C49.1,342.5,47.7,342.6,46.3,342.6z M92.6,342.6l0-3c1.7,0,3.2-0.1,4.6-0.4l0.5,3C96.2,342.5,94.5,342.6,92.6,342.6z M87.5,342.2
				c-1.7-0.3-3.3-0.7-5-1.3l1.1-2.8c1.5,0.6,2.9,0.9,4.4,1.2L87.5,342.2z M40.1,342c-2-0.4-3.6-1-4.9-1.6l1.2-2.8
				c1.2,0.5,2.6,1,4.4,1.4L40.1,342z M8,341.6l-0.8-2.9c1.4-0.4,2.6-0.9,3.8-1.4l0.6-0.2l1.2,2.8l-0.6,0.2
				C10.9,340.5,9.6,341.1,8,341.6z M55.4,341.2l-1-2.8c1-0.3,1.9-0.7,2.8-1.1c0.5-0.2,1.1-0.5,1.7-0.7l1.1,2.8
				c-0.5,0.2-1.1,0.4-1.6,0.7C57.4,340.4,56.5,340.8,55.4,341.2z M102.7,340.8l-1.1-2.8c0.6-0.2,1.2-0.5,1.8-0.7
				c0.9-0.4,1.8-0.8,2.8-1.1l1,2.8c-0.9,0.3-1.7,0.7-2.6,1.1C104,340.3,103.4,340.5,102.7,340.8z M125.3,339.5
				c-1.2-0.5-2.6-1-4.4-1.4l0.6-2.9c2.1,0.4,3.7,1,4.9,1.5L125.3,339.5z M78,339.1c-1.5-0.6-2.9-0.9-4.4-1.1l0.4-3
				c1.7,0.3,3.3,0.7,5,1.3L78,339.1z M30.8,338.7c-1.4-0.5-2.9-0.8-4.5-0.9l0.3-3c1.8,0.2,3.5,0.5,5.1,1L30.8,338.7z M17.1,338.3
				l-0.7-2.9c1.6-0.4,3.3-0.6,5.1-0.7l0.1,3C20,337.7,18.5,337.9,17.1,338.3z M64.3,338l-0.5-3c1.6-0.3,3.2-0.4,5.1-0.4l0,3
				C67.3,337.7,65.7,337.8,64.3,338z M111.6,337.9l-0.4-3c1.3-0.2,2.8-0.3,4.3-0.3c0.3,0,0.5,0,0.8,0l-0.1,3c-0.2,0-0.5,0-0.7,0
				C114.1,337.6,112.8,337.7,111.6,337.9z"/>
		</g>
		<g>
			<path class="st0" d="M0,342.6v-3c0.8,0,1.6,0,2.4-0.1l0.2,3C1.8,342.6,0.9,342.6,0,342.6z"/>
		</g>
	</g>
	<g>
		<g>
			<path class="st0" d="M289.9,344.1l-0.2-3c0.8-0.1,1.7-0.1,2.6-0.1v3C291.4,344.1,290.6,344.1,289.9,344.1z"/>
		</g>
		<g>
			<path class="st0" d="M178.4,349l-0.1-3c1.6-0.1,3.1-0.3,4.5-0.6l0.7,2.9C181.9,348.7,180.3,348.9,178.4,349z M224.9,349l-0.2-3
				c1.6-0.1,3.1-0.3,4.5-0.6l0.7,2.9C228.4,348.6,226.7,348.9,224.9,349z M271.4,349l-0.2-3c1.6-0.1,3.1-0.3,4.5-0.7l0.8,2.9
				C274.9,348.6,273.2,348.8,271.4,349z M266.4,348.9c-1.8-0.1-3.4-0.4-5-0.9l0.8-2.9c1.4,0.4,2.8,0.6,4.4,0.8L266.4,348.9z
				 M219.9,348.9c-1.8-0.2-3.4-0.5-5-0.9l0.9-2.9c1.4,0.4,2.8,0.7,4.4,0.8L219.9,348.9z M188.2,346.7l-1.2-2.8l0.6-0.3
				c1.2-0.5,2.5-1.1,4-1.5l0.9,2.9c-1.3,0.4-2.5,0.9-3.7,1.4L188.2,346.7z M234.7,346.6l-1.2-2.8l0.4-0.2c1.3-0.6,2.6-1.1,4.3-1.6
				l0.8,2.9c-1.4,0.4-2.6,0.9-3.9,1.5L234.7,346.6z M281.1,346.5l-1.2-2.8l0.2-0.1c1.4-0.6,2.8-1.2,4.5-1.7l0.8,2.9
				c-1.5,0.4-2.8,1-4.1,1.5L281.1,346.5z M256.7,346.3c-1.4-0.6-2.7-1.1-4.3-1.5l0.7-2.9c1.8,0.5,3.3,1.1,4.7,1.7L256.7,346.3z
				 M210.3,346.2c-1.3-0.5-2.6-1.1-4.3-1.5l0.7-2.9c1.9,0.5,3.4,1.1,4.8,1.6L210.3,346.2z M196.9,344.2l-0.3-3
				c1.6-0.1,3.4-0.2,5-0.1l-0.1,3C200.1,344,198.4,344.1,196.9,344.2z M243.4,344.2l-0.2-3c1.6-0.1,3.4-0.1,5-0.1l-0.2,3
				C246.6,344,244.8,344,243.4,344.2z"/>
		</g>
		<g>
			<path class="st0" d="M173.2,348.8c-0.9-0.1-1.8-0.2-2.6-0.4l0.6-2.9c0.7,0.2,1.5,0.3,2.3,0.4L173.2,348.8z"/>
		</g>
	</g>
	<polygon class="st6" points="199.5,357.3 181.4,347.3 156.9,324.5 130.7,313.1 113.3,345.9 103.6,350.2 81.4,361.9 215.4,361.9 	
		"/>
	<g>
		<g>
			<g>
				<path class="st2" d="M365.8,290.8c-1.2-0.1-2.3,0.8-2.4,2l-2.2,24.1l-15.7,3.2c-0.5,0.1-1,0.3-1.4,0.5c-3.3,1.5-4.7,5.4-3.2,8.6
					c1.5,3.3,5.4,4.7,8.6,3.2l17-7.9l3.1-1.4l-0.2-2.6l-1.7-27.6C367.8,291.7,366.9,290.9,365.8,290.8z"/>
				<path class="st3" d="M345.6,320c-0.3,0.1-0.6,0.2-0.9,0.3l10.6,9.4l3.8-1.8l-9.8-8.6L345.6,320z"/>
				<path class="st3" d="M365.8,290.8c-1.2-0.1-2.3,0.8-2.4,2l-0.1,0.6l4.3-1.1C367.4,291.4,366.7,290.8,365.8,290.8z"/>
				<polygon class="st3" points="367.9,294.8 363.2,296 362.8,300.1 368.2,298.8 				"/>
				<polygon class="st3" points="368.6,305.3 368.3,301.4 362.6,302.8 362.2,306.9 				"/>
				<polygon class="st3" points="352.5,318.6 361.6,326.7 365.5,324.9 357.3,317.7 				"/>
				<polygon class="st3" points="369,311.8 368.7,307.9 361.9,309.6 361.3,316.4 369.3,323.2 369.7,323 369.5,320.4 369.4,318.4 
					363.5,313.2 				"/>
			</g>
			<circle class="st0" cx="365.4" cy="290.5" r="3.6"/>
			<path class="st1" d="M354.9,351.6l6.8,29.5l1.2,5.1l-4.7,1.4l-41.3,12.7c-2.1,0.7-4.3-0.5-5-2.6c-0.6-2,0.4-4.2,2.4-4.9
				l40.3-15.5l-3.5,6.6l-8.8-29c-1-3.4,0.9-7.1,4.3-8.1s7.1,0.9,8.1,4.3C354.8,351.3,354.9,351.5,354.9,351.6z"/>
			<path class="st1" d="M344.8,354.2l6.8,29.5l1.2,5.1l-4.7,1.4l-41.3,12.7c-2.1,0.7-4.3-0.5-5-2.6c-0.6-2,0.4-4.2,2.4-4.9
				l40.3-15.5l-3.5,6.6l-8.8-29c-1-3.4,0.9-7.1,4.3-8.1s7.1,0.9,8.1,4.3C344.7,354,344.8,354.1,344.8,354.2z"/>
			<path class="st2" d="M332.8,353.4l20.1-3.5l-4.2-23.6c-1.1-6.2-5.7-11.1-11.5-11.9l0,0c-4.3,0.8-8,3.2-10.5,6.7
				c-4.1,5.6-4.4,13.2-1.1,19.3L332.8,353.4z"/>
			<polygon class="st3" points="351.5,342.4 329.2,346.9 331.2,350.4 352.2,346.2 			"/>
			<polygon class="st3" points="350.3,335.4 325.7,340.4 327.7,344 351,339.3 			"/>
			<path class="st3" d="M349.1,328.5l-25.5,5.1c0.2,1.3,0.4,2.5,0.9,3.8l25.3-5.1L349.1,328.5z"/>
			<path class="st3" d="M347.2,321.8l-23,4.6c-0.4,1.3-0.6,2.7-0.7,4.1l25-5C348.2,324.2,347.7,322.9,347.2,321.8z"/>
			<path class="st3" d="M341.4,315.8l-12,2.4c-1,0.8-1.8,1.8-2.6,2.9c-0.4,0.6-0.8,1.2-1.2,1.9l19.6-4
				C344.1,317.7,342.8,316.6,341.4,315.8z"/>
			<g>
				<path class="st2" d="M353.9,275.9l22.3-1.4c1.3-0.1,2.6-0.3,3.8-0.8l11.7-4c3-1,4.6-4.3,3.6-7.3l-0.6-1.7l-0.1-0.3l-0.6-1.7
					c-1-3-4.3-4.6-7.3-3.6l-11.7,4c-1.2,0.4-2.4,1-3.4,1.7L353,273.4L353.9,275.9z"/>
				<path class="st4" d="M284.3,296.8l76.9-25.3c0.3-0.1,0.6,0.1,0.6,0.3c0.1,0.3-0.1,0.5-0.3,0.6l-76.3,27.2
					c-0.8,0.3-1.6-0.1-1.9-0.9C283.1,297.9,283.5,297.1,284.3,296.8C284.3,296.8,284.3,296.8,284.3,296.8z"/>
			</g>
			<circle class="st0" cx="308.6" cy="290.9" r="3.6"/>
			<path class="st0" d="M333.8,313.6l-1.5-8.7c-0.6-3.4,1.7-6.7,5.1-7.3h0c3.4-0.6,6.7,1.7,7.3,5.1l0.3,1.7l2.1,3.8l-1.4,0.2
				l0.5,2.8c0.3,1.5-0.7,2.9-2.2,3.1l-2.9,0.5l0.8,4.5l0,0C338.1,320,334.5,317.4,333.8,313.6z"/>
			<circle class="st0" cx="336.3" cy="307.5" r="1.7"/>
			<circle class="st8" cx="336.5" cy="307.5" r="0.5"/>
			<circle class="st0" cx="336.8" cy="307.8" r="0.5"/>
			<path class="st8" d="M341.2,314.9l0.2,1c-1.8-0.1-3.4-0.8-4.6-2.1C338.1,314.5,339.6,314.9,341.2,314.9z"/>
			<polygon class="st8" points="340.4,306.3 343,306.3 342.9,305.4 			"/>
			<g>
				<path class="st2" d="M308.5,292.2c1.2-0.1,2.3,0.7,2.4,1.9l3,24l15.8,2.7c0.5,0.1,1,0.2,1.5,0.4c3.3,1.4-4.5,9.5-7.2,11.2
					l-15.1-6.5l-3.1-1.3l0.1-2.6l0.8-27.7C306.7,293.2,307.5,292.3,308.5,292.2z"/>
				<path class="st3" d="M329.8,320.8c0.3,0.1,0.6,0.1,0.9,0.2l-10.3,9.7l-3.9-1.7l9.5-9L329.8,320.8z"/>
				<path class="st3" d="M308.5,292.2c1.2-0.1,2.3,0.7,2.4,1.9l0.1,0.6l-4.3-0.9C307,292.9,307.7,292.3,308.5,292.2z"/>
				<polygon class="st3" points="306.6,296.3 311.4,297.4 311.9,301.4 306.5,300.2 				"/>
				<polygon class="st3" points="306.3,306.8 306.4,302.9 312.2,304.1 312.7,308.2 				"/>
				<polygon class="st3" points="322.8,319.6 314,328 310.1,326.3 318,318.8 				"/>
				<polygon class="st3" points="306.1,313.4 306.2,309.4 313.1,310.9 313.9,317.7 306.2,324.7 305.8,324.5 305.9,321.9 305.9,320 
					311.6,314.6 				"/>
			</g>
			<g>
				<path class="st2" d="M342.9,297.9l-11.5,4.8c0.1,0.5,0.2,0.9,0.3,1.4l0.1,0.3l11.4-5.6l-0.1-0.3
					C343.1,298.3,343,298.1,342.9,297.9z"/>
				<path class="st2" d="M337.3,295.4l-3.5,1.7c-1,0.5-1.7,1.4-2.1,2.5l9.2-3.9C339.8,295,338.5,294.8,337.3,295.4z"/>
				<path class="st3" d="M341,295.7l-9.2,3.9c-0.4,1-0.5,2.1-0.3,3.2l11.5-4.8C342.4,297,341.7,296.2,341,295.7z"/>
			</g>
		</g>
		<path class="st1" d="M374.6,404.3l-58.8,10.4c-18.8,3.3-38.5-3.6-54.3-19l0,0l159.9-28.2L411.2,381
			C401.6,393.6,388.8,401.8,374.6,404.3z"/>
		<g>
			<path class="st0" d="M251.9,396.4c-1.9,0-3.6-1.4-3.9-3.3c-0.4-2.2,1.1-4.2,3.2-4.6l174.3-30.7c2.2-0.4,4.2,1.1,4.6,3.2
				c0.4,2.2-1.1,4.2-3.2,4.6l-174.3,30.7C252.3,396.4,252.1,396.4,251.9,396.4z"/>
		</g>
	</g>
	<rect x="273.7" y="134.7" class="st0" width="40.5" height="3.5"/>
	<path class="st2" d="M247.6,85.9c-0.2,0-0.5,0-0.7,0c-4.8,0.2-9.4-1.6-12.6-5.1c-4.2-4.5-10.2-7.4-16.9-7.4
		c-8.1,0-15.2,4.2-19.3,10.6c-0.8,1.2-2.1,1.9-3.5,1.9c0,0-0.1,0-0.1,0c-5,0-9.6,1.3-13.7,3.5c-8.9,4.9-3.2,7.9-13.3,9.2l-2.2,2.2
		h4.2h21h76C264.5,92.3,256.8,85.9,247.6,85.9z"/>
	<path class="st2" d="M392.5,151.8c-1.1-2.3-5-4-7.8-4l0,0c-0.4,0-0.8-0.2-1-0.6c-1.5-2.7-4.3-4.6-7.6-4.6c-2,0-3.8,0.7-5.3,1.8
		c-0.9,0.7-2.1,1.1-3.2,1.1c-0.1,0-0.1,0-0.2,0c-2.1,0-4,0.5-5.8,1.4c-1.2,0.6-2.5,0.9-3.9,0.9c-0.1,0-0.2,0-0.3,0
		c-2.7,0-7,1.6-8.1,4H392.5z"/>
	<path class="st2" d="M164.9,176.3c2-4.5,9.6-7.6,14.8-7.6l0,0c0.8,0,1.6-0.4,2-1.2c2.8-5.2,8.3-8.7,14.6-8.7
		c3.8,0,7.3,1.3,10.1,3.4c1.8,1.4,3.9,2.1,6.1,2.1c0.1,0,0.2,0,0.3,0c4,0,7.7,1,11,2.7c2.3,1.2,4.8,1.7,7.4,1.6c0.2,0,0.3,0,0.5,0
		c5.2,0,13.4,3.1,15.4,7.6H164.9z"/>
	<g>
		<polygon class="st2" points="138.3,112.7 138.4,107.7 143.2,107.7 143.3,112.7 		"/>
		<path class="st2" d="M138.6,97.7l0-2.5c0-0.8,0-1.8,0.2-2.8c0.3-1.9,1-3.8,2-5.5c1-1.6,2.3-3.1,3.9-4.2c1.6-1.1,3.4-1.9,5.2-2.4
			l0.9,3.7c-1.4,0.4-2.6,1-3.8,1.9c-1.1,0.8-2,1.9-2.7,3.1c-0.7,1.2-1.1,2.5-1.3,3.9c-0.1,1.2,0,3.1,0,4.7H138.6z"/>
		<path class="st2" d="M155.4,80.1c0.8,0,1.7,0,2.4,0c0.7,0,1.4-0.1,2.1-0.3c1.4-0.4,2.7-1,3.9-1.9l2,2.6c-1.5,1.2-3.2,2.1-5,2.6
			c-0.9,0.3-1.9,0.4-2.8,0.5c-1,0.1-1.8,0.1-2.6,0.1V80.1z"/>
		<polygon class="st2" points="168.2,60.7 168.3,55.7 170.8,55.7 170.8,60.7 		"/>
		<path class="st2" d="M168.5,45.7l0.1-5c0-0.8,0-1.6,0.1-2.6c0.1-0.9,0.2-1.8,0.5-2.6c0.5-1.7,1.4-3.3,2.5-4.7
			c1.1-1.4,2.5-2.5,4.1-3.3l0.7,1.2c-1.4,0.8-2.6,1.8-3.5,3.1c-0.9,1.2-1.6,2.7-2,4.2c-0.2,0.8-0.3,1.5-0.4,2.3c0,0.7,0,1.6,0,2.4
			l0.1,5H168.5z"/>
		<path class="st2" d="M180.7,26l1.3,0c0.4,0,0.8,0,1.2,0c0.8-0.1,1.6-0.2,2.4-0.4c1.5-0.4,3-1.2,4.2-2.2l0.6,0.7
			c-1.3,1.1-2.8,2-4.5,2.5c-0.8,0.3-1.7,0.4-2.5,0.5c-0.4,0-0.9,0.1-1.3,0.1l-1.2,0.1L180.7,26z"/>
		<polygon class="st2" points="194.5,5 194.6,0 194.6,0 194.7,5 		"/>
	</g>
	<circle class="st0" cx="486.6" cy="155.3" r="18.1"/>
	<g>
		<path class="st2" d="M358.8,101.9l-0.3-0.2c-4.2-2.9-9.3-4.4-14.7-4.4v-1c5.5,0,10.7,1.5,15,4.4c4.3-2.9,9.5-4.4,15-4.4v1
			c-5.4,0-10.5,1.5-14.7,4.4L358.8,101.9z"/>
	</g>
	<g>
		<path class="st2" d="M325.6,84.4l-0.3-0.2c-4.2-2.9-9.3-4.4-14.7-4.4v-1c5.5,0,10.7,1.5,15,4.4c4.3-2.9,9.5-4.4,15-4.4v1
			c-5.4,0-10.5,1.5-14.7,4.4L325.6,84.4z"/>
	</g>
</g>
</svg>
