<?xml version="1.0" encoding="utf-8"?>
<!-- Generator: Adobe Illustrator 23.0.1, SVG Export Plug-In . SVG Version: 6.00 Build 0)  -->
<!DOCTYPE svg PUBLIC "-//W3C//DTD SVG 1.1//EN" "http://www.w3.org/Graphics/SVG/1.1/DTD/svg11.dtd" [
	<!ENTITY ns_extend "http://ns.adobe.com/Extensibility/1.0/">
	<!ENTITY ns_ai "http://ns.adobe.com/AdobeIllustrator/10.0/">
	<!ENTITY ns_graphs "http://ns.adobe.com/Graphs/1.0/">
	<!ENTITY ns_vars "http://ns.adobe.com/Variables/1.0/">
	<!ENTITY ns_imrep "http://ns.adobe.com/ImageReplacement/1.0/">
	<!ENTITY ns_sfw "http://ns.adobe.com/SaveForWeb/1.0/">
	<!ENTITY ns_custom "http://ns.adobe.com/GenericCustomNamespace/1.0/">
	<!ENTITY ns_adobe_xpath "http://ns.adobe.com/XPath/1.0/">
]>
<svg version="1.1" id="Isolation_Mode" xmlns:x="&ns_extend;" xmlns:i="&ns_ai;" xmlns:graph="&ns_graphs;"
	 xmlns="http://www.w3.org/2000/svg" xmlns:xlink="http://www.w3.org/1999/xlink" x="0px" y="0px" width="684.3px" height="868.7px"
	 viewBox="0 0 684.3 868.7" style="enable-background:new 0 0 684.3 868.7;" xml:space="preserve">
<style type="text/css">
	.st0{fill:#FF7555;}
	.st1{fill:#4C1C7B;}
	.st2{fill:#FFFFFF;}
	.st3{fill:#231336;}
</style>
<metadata>
	<sfw  xmlns="&ns_sfw;">
		<slices></slices>
		<sliceSourceBounds  bottomLeftOrigin="true" height="868.7" width="684.3" x="3418.5" y="-1397.9"></sliceSourceBounds>
	</sfw>
</metadata>
<g>
	<path class="st0" d="M17.7,389.7c-6.1,0-11.1-5-11.1-11.1s5-11.1,11.1-11.1s11.1,5,11.1,11.1S23.8,389.7,17.7,389.7z M17.7,373.5
		c-2.8,0-5.1,2.3-5.1,5.1s2.3,5.1,5.1,5.1s5.1-2.3,5.1-5.1S20.5,373.5,17.7,373.5z"/>
</g>
<g>
	<path class="st0" d="M18.4,479.8c-6.1,0-11.1-5-11.1-11.1s5-11.1,11.1-11.1s11.1,5,11.1,11.1S24.5,479.8,18.4,479.8z M18.4,463.6
		c-2.8,0-5.1,2.3-5.1,5.1s2.3,5.1,5.1,5.1c2.8,0,5.1-2.3,5.1-5.1S21.2,463.6,18.4,463.6z"/>
</g>
<g>
	<path class="st0" d="M11.1,539.4c-6.1,0-11.1-5-11.1-11.1s5-11.1,11.1-11.1s11.1,5,11.1,11.1S17.2,539.4,11.1,539.4z M11.1,523.2
		c-2.8,0-5.1,2.3-5.1,5.1s2.3,5.1,5.1,5.1s5.1-2.3,5.1-5.1S13.9,523.2,11.1,523.2z"/>
</g>
<g>
	<polygon class="st0" points="19.7,524 15.5,519.7 57.3,477.9 91.7,477.9 91.7,483.9 59.8,483.9 	"/>
</g>
<g>
	<polygon class="st0" points="25.9,465.8 21.6,461.6 46.5,436.7 91.7,436.7 91.7,442.7 49,442.7 	"/>
</g>
<g>
	<polygon class="st0" points="91.7,402.6 46.8,402.6 22,385.2 25.5,380.3 48.7,396.6 91.7,396.6 	"/>
</g>
<circle class="st1" cx="66.2" cy="399" r="8.1"/>
<g>
	<polygon class="st0" points="325.4,277.2 319.4,277.2 319.4,145.1 271.1,96.8 271.1,19.1 277.1,19.1 277.1,94.3 325.4,142.6 	"/>
</g>
<g>
	<polygon class="st0" points="262.3,277.2 256.3,277.2 256.3,172.2 208,123.9 208,46.2 214,46.2 214,121.4 262.3,169.8 	"/>
</g>
<g>
	<polygon class="st0" points="199.2,277.2 193.2,277.2 193.2,199.4 144.9,151 144.9,73.3 150.9,73.3 150.9,148.5 199.2,196.9 	"/>
</g>
<g>
	<polygon class="st0" points="136.1,277.2 130.1,277.2 130.1,226.5 81.8,178.1 81.8,100.5 87.8,100.5 87.8,175.6 136.1,224 	"/>
</g>
<g>
	<path class="st0" d="M273.8,22.2c-6.1,0-11.1-5-11.1-11.1S267.7,0,273.8,0s11.1,5,11.1,11.1S279.9,22.2,273.8,22.2z M273.8,6
		c-2.8,0-5.1,2.3-5.1,5.1c0,2.8,2.3,5.1,5.1,5.1c2.8,0,5.1-2.3,5.1-5.1C278.9,8.3,276.6,6,273.8,6z"/>
</g>
<circle class="st1" cx="301" cy="123.7" r="8.1"/>
<circle class="st1" cx="194.9" cy="238.3" r="8.1"/>
<g>
	<path class="st0" d="M85.2,100.6c-6.1,0-11.1-5-11.1-11.1s5-11.1,11.1-11.1s11.1,5,11.1,11.1S91.3,100.6,85.2,100.6z M85.2,84.5
		c-2.8,0-5.1,2.3-5.1,5.1c0,2.8,2.3,5.1,5.1,5.1s5.1-2.3,5.1-5.1C90.2,86.7,88,84.5,85.2,84.5z"/>
</g>
<g>
	<path class="st0" d="M211.3,46.7c-6.1,0-11.1-5-11.1-11.1s5-11.1,11.1-11.1s11.1,5,11.1,11.1S217.4,46.7,211.3,46.7z M211.3,30.6
		c-2.8,0-5.1,2.3-5.1,5.1c0,2.8,2.3,5.1,5.1,5.1s5.1-2.3,5.1-5.1C216.4,32.8,214.1,30.6,211.3,30.6z"/>
</g>
<g>
	<path class="st0" d="M147.4,76c-6.1,0-11.1-5-11.1-11.1s5-11.1,11.1-11.1s11.1,5,11.1,11.1S153.5,76,147.4,76z M147.4,59.8
		c-2.8,0-5.1,2.3-5.1,5.1s2.3,5.1,5.1,5.1c2.8,0,5.1-2.3,5.1-5.1S150.2,59.8,147.4,59.8z"/>
</g>
<g>
	<path class="st0" d="M594.5,499.3c-6.1,0-11.1-5-11.1-11.1s5-11.1,11.1-11.1s11.1,5,11.1,11.1S600.6,499.3,594.5,499.3z
		 M594.5,483.1c-2.8,0-5.1,2.3-5.1,5.1s2.3,5.1,5.1,5.1s5.1-2.3,5.1-5.1S597.3,483.1,594.5,483.1z"/>
</g>
<g>
	<path class="st0" d="M673.2,509.6c-6.1,0-11.1-5-11.1-11.1s5-11.1,11.1-11.1s11.1,5,11.1,11.1S679.3,509.6,673.2,509.6z
		 M673.2,493.4c-2.8,0-5.1,2.3-5.1,5.1s2.3,5.1,5.1,5.1c2.8,0,5.1-2.3,5.1-5.1S676,493.4,673.2,493.4z"/>
</g>
<g>
	<path class="st0" d="M539.5,373.2c-6.1,0-11.1-5-11.1-11.1s5-11.1,11.1-11.1s11.1,5,11.1,11.1S545.6,373.2,539.5,373.2z
		 M539.5,357.1c-2.8,0-5.1,2.3-5.1,5.1s2.3,5.1,5.1,5.1s5.1-2.3,5.1-5.1S542.3,357.1,539.5,357.1z"/>
</g>
<g>
	<polygon class="st0" points="639.5,538.4 530.2,538.4 491.1,499.3 431.8,499.3 431.8,493.3 493.5,493.3 532.7,532.4 637,532.4 
		666.4,503.1 670.6,507.3 	"/>
</g>
<g>
	<polygon class="st0" points="586,491 536.8,491 536.8,448.3 429.4,448.3 429.4,442.3 542.8,442.3 542.8,485 586,485 	"/>
</g>
<g>
	<polygon class="st0" points="492.6,413.3 429,413.3 429,407.3 490.1,407.3 531.9,365.5 536.2,369.7 	"/>
</g>
<circle class="st1" cx="570.6" cy="536.7" r="8.1"/>
<g>
	<path class="st0" d="M270.8,801.7c-6.1,0-11.1-5-11.1-11.1s5-11.1,11.1-11.1s11.1,5,11.1,11.1S276.9,801.7,270.8,801.7z
		 M270.8,785.5c-2.8,0-5.1,2.3-5.1,5.1c0,2.8,2.3,5.1,5.1,5.1s5.1-2.3,5.1-5.1C275.9,787.8,273.6,785.5,270.8,785.5z"/>
</g>
<g>
	<path class="st0" d="M228.6,764.2c-6.1,0-11.1-5-11.1-11.1s5-11.1,11.1-11.1s11.1,5,11.1,11.1S234.7,764.2,228.6,764.2z M228.6,748
		c-2.8,0-5.1,2.3-5.1,5.1s2.3,5.1,5.1,5.1c2.8,0,5.1-2.3,5.1-5.1S231.4,748,228.6,748z"/>
</g>
<g>
	<path class="st0" d="M372,818.1c-6.1,0-11.1-5-11.1-11.1s5-11.1,11.1-11.1s11.1,5,11.1,11.1S378.1,818.1,372,818.1z M372,801.9
		c-2.8,0-5.1,2.3-5.1,5.1s2.3,5.1,5.1,5.1s5.1-2.3,5.1-5.1S374.8,801.9,372,801.9z"/>
</g>
<g>
	<path class="st0" d="M438,868.7c-6.1,0-11.1-5-11.1-11.1s5-11.1,11.1-11.1s11.1,5,11.1,11.1S444.1,868.7,438,868.7z M438,852.6
		c-2.8,0-5.1,2.3-5.1,5.1s2.3,5.1,5.1,5.1s5.1-2.3,5.1-5.1S440.8,852.6,438,852.6z"/>
</g>
<g>
	<polygon class="st0" points="230.9,743.1 224.9,743.1 224.9,692.4 194.7,662.2 194.7,614.6 200.7,614.6 200.7,659.7 230.9,689.9 	
		"/>
</g>
<g>
	<polygon class="st0" points="375.2,800.1 369.2,800.1 369.2,692.4 338.9,662.2 338.9,614.6 344.9,614.6 344.9,659.7 375.2,689.9 	
		"/>
</g>
<g>
	<rect x="267.7" y="614.6" class="st0" width="6" height="165.3"/>
</g>
<g>
	<polygon class="st0" points="441,851.1 435,851.1 435,653.2 372.8,653.2 372.8,614.6 378.8,614.6 378.8,647.2 441,647.2 	"/>
</g>
<circle class="st1" cx="270.5" cy="673.9" r="8.1"/>
<path class="st1" d="M415.7,563.4c-10.6,0-19.2-8.6-19.2-19.2s8.6-19.2,19.2-19.2h16.9V367.4h-16.9c-10.6,0-19.2-8.6-19.2-19.2
	c0-10.6,8.6-19.2,19.2-19.2h16.9V276H92.3v52.9h16.9c10.6,0,19.2,8.6,19.2,19.2c0,10.6-8.6,19.2-19.2,19.2H92.3V525h16.9
	c10.6,0,19.2,8.6,19.2,19.2s-8.6,19.2-19.2,19.2H92.3v52.9h340.3v-52.9H415.7z"/>
<g>
	<g>
		<circle class="st0" cx="412.5" cy="300.2" r="8.1"/>
		<circle class="st0" cx="112.4" cy="300.2" r="8.1"/>
	</g>
	<g>
		<circle class="st0" cx="412.5" cy="592.1" r="8.1"/>
		<circle class="st0" cx="112.4" cy="592.1" r="8.1"/>
	</g>
</g>
<path class="st0" d="M361.3,555H163.6c-5.5,0-10-4.5-10-10V347.3c0-5.5,4.5-10,10-10h197.6c5.5,0,10,4.5,10,10V545
	C371.3,550.5,366.8,555,361.3,555z"/>
<g>
	<g>
		<rect x="371.7" y="383.9" class="st2" width="31.3" height="16.1"/>
		<rect x="371.7" y="411" class="st2" width="31.3" height="16.1"/>
		<rect x="371.7" y="438.1" class="st2" width="31.3" height="16.1"/>
		<rect x="371.7" y="465.2" class="st2" width="31.3" height="16.1"/>
		<rect x="371.7" y="492.3" class="st2" width="31.3" height="16.1"/>
	</g>
	<g>
		<rect x="121.8" y="383.9" class="st2" width="31.3" height="16.1"/>
		<rect x="121.8" y="411" class="st2" width="31.3" height="16.1"/>
		<rect x="121.8" y="438.1" class="st2" width="31.3" height="16.1"/>
		<rect x="121.8" y="465.2" class="st2" width="31.3" height="16.1"/>
		<rect x="121.8" y="492.3" class="st2" width="31.3" height="16.1"/>
	</g>
</g>
<g>
	<g>
		<rect x="200.2" y="305.6" class="st2" width="16.1" height="31.3"/>
		<rect x="227.3" y="305.6" class="st2" width="16.1" height="31.3"/>
		<rect x="254.4" y="305.6" class="st2" width="16.1" height="31.3"/>
		<rect x="281.5" y="305.6" class="st2" width="16.1" height="31.3"/>
		<rect x="308.6" y="305.6" class="st2" width="16.1" height="31.3"/>
	</g>
	<g>
		<rect x="200.2" y="555.4" class="st2" width="16.1" height="31.3"/>
		<rect x="227.3" y="555.4" class="st2" width="16.1" height="31.3"/>
		<rect x="254.4" y="555.4" class="st2" width="16.1" height="31.3"/>
		<rect x="281.5" y="555.4" class="st2" width="16.1" height="31.3"/>
		<rect x="308.6" y="555.4" class="st2" width="16.1" height="31.3"/>
	</g>
</g>
<g>
	<path class="st3" d="M214.5,460.2h-18.8l-4.6,12.2h-10L200,422h10.1l18.9,50.4h-9.9L214.5,460.2z M198.8,452h12.6l-6.4-19.3
		L198.8,452z"/>
	<path class="st3" d="M241.7,457.7c0.1,3.7,3.3,7.1,8.7,7.1c5.1,0,8.1-2.6,8.3-6.1c0.2-3.4-2-5.6-7-6.9l-6.2-1.6
		c-11-3.2-12.7-9.6-12.7-14.1c0-8.9,7.7-14.8,17-14.8c9.5,0,16.8,5.8,16.8,15.2h-9.4c0-4-2.9-6.6-7.5-6.6c-4.2,0-7.5,2.3-7.5,5.9
		c0,1.6,0.6,4.3,6,5.8l6.2,1.8c11.3,3.1,14.2,9.4,13.8,15.4c-0.4,9.1-8.5,14.3-17.7,14.3c-10.8,0-18.1-6.9-18.1-15.5H241.7z"/>
	<path class="st3" d="M277.5,422h9.3v50.4h-9.3V422z"/>
	<path class="st3" d="M342.2,462.9c-4.4,6.2-11.8,10.2-20.5,10.2c-14.3,0-25.4-11.6-25.4-25.8c0-14.3,11.1-25.9,25.4-25.9
		c8.6,0,15.9,3.9,20.3,10l-7.5,5.3c-2.9-3.8-7.5-6.4-12.8-6.4c-9.2,0-16,7.6-16,17.1c0,9.4,6.9,17,16,17c5.4,0,10.2-2.7,13.1-6.8
		L342.2,462.9z"/>
</g>
</svg>
