<?xml version="1.0" encoding="UTF-8"?>
<svg width="248px" height="52px" viewBox="0 0 248 52" version="1.1" xmlns="http://www.w3.org/2000/svg" xmlns:xlink="http://www.w3.org/1999/xlink">
    <!-- Generator: Sketch 59.1 (86144) - https://sketch.com -->
    <title>demuxed-europe</title>
    <desc>Created with Sketch.</desc>
    <g id="Page-1" stroke="none" stroke-width="1" fill="none" fill-rule="evenodd">
        <g id="Artboard-Copy" transform="translate(-173.000000, -364.000000)" fill="#FFFFFF">
            <g id="demuxed-europe" transform="translate(173.000000, 364.000000)">
                <g id="logo-white" stroke-width="1" fill-rule="evenodd">
                    <path d="M0,6 L9.96,6 C12.12,6 13.92,6.36651584 15.72,6.97737557 C17.52,7.58823529 18.96,8.68778281 20.16,9.78733032 C21.48,11.0090498 22.44,12.4751131 23.04,14.0633484 C23.64,15.6515837 24,17.7285068 24,19.561086 L24,19.561086 C24,21.3936652 23.64,23.2262443 23.04,24.9366516 C22.44,26.6470588 21.36,28.1131222 20.16,29.2126697 C18.84,30.4343891 17.4,31.4117647 15.72,32.0226244 C13.92,32.6334842 12.12,33 9.96,33 L0,33 L0,6 Z M9.96,28.9683258 C11.4,28.9683258 12.6,28.8461538 13.68,28.3574661 C14.88,27.8687783 15.84,27.1357466 16.56,26.5248869 C17.4,25.6696833 18,24.6923077 18.36,23.5927602 C18.84,22.3710407 18.96,21.2714932 18.96,19.9276018 L18.96,19.9276018 C18.96,18.5837104 18.84,17.4841629 18.36,16.2624434 C17.88,15.040724 17.16,14.0633484 16.56,13.3303167 C15.72,12.3529412 14.76,11.6199095 13.68,11.3755656 C12.48,10.8868778 11.28,10.520362 9.96,10.520362 L4.56,10.520362 L4.56,28.9683258 L9.96,28.9683258 L9.96,28.9683258 Z" id="Shape" fill-rule="nonzero"></path>
                    <polygon id="Path" fill-rule="nonzero" points="38 6 57.8795181 6 57.8795181 10.3587444 42.6987952 10.3587444 42.6987952 17.2600897 56.1927711 17.2600897 56.1927711 21.4977578 42.6987952 21.4977578 42.6987952 28.7623318 58 28.7623318 58 33 38 33"></polygon>
                    <polygon id="Path" fill-rule="nonzero" points="71 6 76.1545455 6 84.5 18.7130045 92.8454545 6 98 6 98 32.8789238 93.3363636 32.8789238 93.3363636 13.7488789 84.8681818 26.4618834 84.7454545 26.4618834 75.7863636 13.7488789 75.7863636 33 71.1227273 33 71.1227273 6"></polygon>
                    <path d="M122.62234,34 C120.787234,34 119.319149,33.6415929 117.851064,33.1637168 C116.382979,32.6858407 115.159574,31.8495575 114.180851,30.8938053 C113.202128,29.9380531 112.345745,28.6238938 111.856383,27.3097345 C111.367021,25.8761062 111,24.2035398 111,22.2920354 L111,7 L115.648936,7 L115.648936,22.1725664 C115.648936,24.5619469 116.260638,26.5929204 117.484043,27.9070796 C118.707447,29.2212389 120.297872,29.8185841 122.5,29.8185841 C124.702128,29.8185841 126.292553,29.2212389 127.515957,28.0265487 C128.739362,26.7123894 129.351064,24.920354 129.351064,22.5309735 L129.351064,7 L134,7 L134,22.1725664 C134,24.0840708 133.632979,25.8761062 133.143617,27.4292035 C132.654255,28.9823009 131.797872,30.1769912 130.819149,31.1327434 C129.840426,32.0884956 128.617021,32.9247788 127.148936,33.4026549 C126.170213,33.880531 124.457447,34 122.62234,34 Z" id="Path" fill-rule="nonzero"></path>
                    <polygon id="Path" fill-rule="nonzero" points="165.485294 6 171 6 151.514706 33 146 33"></polygon>
                    <polygon id="Path" fill-rule="nonzero" points="147.72 0 141 0 152.76 17 156 12.4748201"></polygon>
                    <polygon id="Path" fill-rule="nonzero" points="163.446154 23 160 27.4861111 169.230769 40 176 40"></polygon>
                    <polygon id="Path" fill-rule="nonzero" points="184 6 203.757576 6 203.757576 10.3587444 188.606061 10.3587444 188.606061 17.2600897 202.181818 17.2600897 202.181818 21.4977578 188.606061 21.4977578 188.606061 28.7623318 204 28.7623318 204 33 184 33"></polygon>
                    <path d="M217,6 L226.96,6 C229.12,6 230.92,6.36818182 232.72,6.98181818 C234.52,7.59545455 235.96,8.7 237.16,9.80454545 C238.48,11.0318182 239.44,12.5045455 240.04,14.1 C240.64,15.8181818 241,17.6590909 241,19.5 L241,19.5 C241,21.3409091 240.64,23.1818182 240.04,24.9 C239.44,26.6181818 238.36,28.0909091 237.16,29.1954545 C235.84,30.4227273 234.4,31.4045455 232.72,32.0181818 C230.92,32.6318182 229.12,33 226.96,33 L217,33 L217,6 Z M226.84,29.0727273 C228.28,29.0727273 229.48,28.95 230.56,28.4590909 C231.76,27.9681818 232.72,27.2318182 233.44,26.6181818 C234.28,25.7590909 234.88,24.7772727 235.24,23.6727273 C235.72,22.4454545 235.84,21.3409091 235.84,19.9909091 L235.84,19.9909091 C235.84,18.6409091 235.72,17.5363636 235.24,16.3090909 C234.76,15.0818182 234.04,14.1 233.44,13.3636364 C232.6,12.5045455 231.64,11.8909091 230.56,11.4 C229.36,10.9090909 228.16,10.7863636 226.84,10.7863636 L221.56,10.7863636 L221.56,29.3181818 L226.84,29.3181818 L226.84,29.0727273 Z" id="Shape" fill-rule="nonzero"></path>
                </g>
                <text id="EUROPE" stroke="#FFFFFF" stroke-width="3" font-family=".AppleSystemUIFont" font-size="17" font-weight="normal" letter-spacing="-0.767741922">
                    <tspan x="182" y="53">EUROPE</tspan>
                </text>
            </g>
        </g>
    </g>
</svg>