<?xml version="1.0" encoding="utf-8"?>
<!-- Generator: Adobe Illustrator 23.0.1, SVG Export Plug-In . SVG Version: 6.00 Build 0)  -->
<!DOCTYPE svg PUBLIC "-//W3C//DTD SVG 1.1//EN" "http://www.w3.org/Graphics/SVG/1.1/DTD/svg11.dtd" [
	<!ENTITY ns_extend "http://ns.adobe.com/Extensibility/1.0/">
	<!ENTITY ns_ai "http://ns.adobe.com/AdobeIllustrator/10.0/">
	<!ENTITY ns_graphs "http://ns.adobe.com/Graphs/1.0/">
	<!ENTITY ns_vars "http://ns.adobe.com/Variables/1.0/">
	<!ENTITY ns_imrep "http://ns.adobe.com/ImageReplacement/1.0/">
	<!ENTITY ns_sfw "http://ns.adobe.com/SaveForWeb/1.0/">
	<!ENTITY ns_custom "http://ns.adobe.com/GenericCustomNamespace/1.0/">
	<!ENTITY ns_adobe_xpath "http://ns.adobe.com/XPath/1.0/">
]>
<svg version="1.1" id="Layer_1" xmlns:x="&ns_extend;" xmlns:i="&ns_ai;" xmlns:graph="&ns_graphs;"
	 xmlns="http://www.w3.org/2000/svg" xmlns:xlink="http://www.w3.org/1999/xlink" x="0px" y="0px" width="200px" height="33.2px"
	 viewBox="0 0 200 33.2" style="enable-background:new 0 0 200 33.2;" xml:space="preserve">
<style type="text/css">
	.st0{fill:#FFFFFF;}
	.st1{fill:#763FAA;}
	.st2{fill:#FF855F;}
</style>
<metadata>
	<sfw  xmlns="&ns_sfw;">
		<slices></slices>
		<sliceSourceBounds  bottomLeftOrigin="true" height="33.2" width="200" x="0" y="0"></sliceSourceBounds>
	</sfw>
</metadata>
<g>
	<path class="st0" d="M0,5.4h8.3c1.8,0,3.3,0.3,4.8,0.8s2.7,1.4,3.7,2.3c1.1,1,1.9,2.2,2.4,3.5s0.8,3,0.8,4.5l0,0
		c0,1.5-0.3,3-0.8,4.4s-1.4,2.6-2.4,3.5c-1.1,1-2.3,1.8-3.7,2.3c-1.5,0.5-3,0.8-4.8,0.8H0V5.4z M8.3,24.2c1.2,0,2.2-0.1,3.1-0.5
		c1-0.4,1.8-1,2.4-1.5c0.7-0.7,1.2-1.5,1.5-2.4c0.4-1,0.5-1.9,0.5-3l0,0c0-1.1-0.1-2-0.5-3s-1-1.8-1.5-2.4c-0.7-0.8-1.5-1.4-2.4-1.6
		c-1-0.4-2-0.7-3.1-0.7H3.8v15.1H8.3L8.3,24.2z"/>
	<path class="st0" d="M31.2,5.4h16.5V9H35.1v5.7h11.2v3.5H35.1v6h12.7v3.5H31.2V5.4z"/>
	<path class="st0" d="M58.8,5.4H63l6.8,10.5l6.8-10.5h4.2v22.2H77V11.8l-6.9,10.5H70l-7.3-10.5v15.9h-3.8V5.4H58.8z"/>
	<path class="st0" d="M101.6,28c-1.5,0-2.7-0.3-3.9-0.7c-1.2-0.4-2.2-1.1-3-1.9s-1.5-1.9-1.9-3c-0.4-1.2-0.7-2.6-0.7-4.2V5.4h3.8
		v12.7c0,2,0.5,3.7,1.5,4.8s2.3,1.6,4.1,1.6c1.8,0,3.1-0.5,4.1-1.5c1-1.1,1.5-2.6,1.5-4.6v-13h3.8v12.7c0,1.6-0.3,3.1-0.7,4.4
		s-1.1,2.3-1.9,3.1c-0.8,0.8-1.8,1.5-3,1.9C104.5,27.9,103.1,28,101.6,28z"/>
	<path class="st0" d="M137.1,5.4h4.5l-15.9,22.3h-4.5L137.1,5.4z"/>
	<polygon class="st1" points="122.9,0 117.3,0 127.1,13.9 129.8,10.2 	"/>
	<polygon class="st2" points="136.1,18.8 133.3,22.6 140.8,33.2 146.3,33.2 	"/>
	<path class="st0" d="M152.4,5.4h16.3V9h-12.5v5.7h11.2v3.5h-11.2v6h12.7v3.5h-16.5V5.4z"/>
	<path class="st0" d="M180,5.4h8.3c1.8,0,3.3,0.3,4.8,0.8s2.7,1.4,3.7,2.3c1.1,1,1.9,2.2,2.4,3.5c0.5,1.4,0.8,2.9,0.8,4.4l0,0
		c0,1.5-0.3,3-0.8,4.4s-1.4,2.6-2.4,3.5c-1.1,1-2.3,1.8-3.7,2.3c-1.5,0.5-3,0.8-4.8,0.8H180V5.4z M188.2,24.2c1.2,0,2.2-0.1,3.1-0.5
		c1-0.4,1.8-1,2.4-1.5c0.7-0.7,1.2-1.5,1.5-2.4c0.4-1,0.5-1.9,0.5-3l0,0c0-1.1-0.1-2-0.5-3s-1-1.8-1.5-2.4c-0.7-0.7-1.5-1.2-2.4-1.6
		c-1-0.4-2-0.5-3.1-0.5h-4.4v15.1h4.4V24.2z"/>
</g>
</svg>
