<?xml version="1.0" encoding="utf-8"?>
<!-- Generator: Adobe Illustrator 23.0.1, SVG Export Plug-In . SVG Version: 6.00 Build 0)  -->
<!DOCTYPE svg PUBLIC "-//W3C//DTD SVG 1.1//EN" "http://www.w3.org/Graphics/SVG/1.1/DTD/svg11.dtd" [
	<!ENTITY ns_extend "http://ns.adobe.com/Extensibility/1.0/">
	<!ENTITY ns_ai "http://ns.adobe.com/AdobeIllustrator/10.0/">
	<!ENTITY ns_graphs "http://ns.adobe.com/Graphs/1.0/">
	<!ENTITY ns_vars "http://ns.adobe.com/Variables/1.0/">
	<!ENTITY ns_imrep "http://ns.adobe.com/ImageReplacement/1.0/">
	<!ENTITY ns_sfw "http://ns.adobe.com/SaveForWeb/1.0/">
	<!ENTITY ns_custom "http://ns.adobe.com/GenericCustomNamespace/1.0/">
	<!ENTITY ns_adobe_xpath "http://ns.adobe.com/XPath/1.0/">
]>
<svg version="1.1" id="Isolation_Mode" xmlns:x="&ns_extend;" xmlns:i="&ns_ai;" xmlns:graph="&ns_graphs;"
	 xmlns="http://www.w3.org/2000/svg" xmlns:xlink="http://www.w3.org/1999/xlink" x="0px" y="0px" width="1221.1px" height="578px"
	 viewBox="0 0 1221.1 578" style="enable-background:new 0 0 1221.1 578;" xml:space="preserve">
<style type="text/css">
	.st0{fill:#362B5C;}
	.st1{fill:#FF8A67;}
	.st2{fill:#FFFFFF;}
	.st3{fill:#5F2F8E;}
	.st4{fill:#2F1C46;}
	.st5{fill:#602F8D;}
	.st6{fill:none;stroke:#FF8A67;stroke-width:2;stroke-miterlimit:10;}
</style>
<metadata>
	<sfw  xmlns="&ns_sfw;">
		<slices></slices>
		<sliceSourceBounds  bottomLeftOrigin="true" height="578" width="1221.1" x="4461" y="-686.5"></sliceSourceBounds>
	</sfw>
</metadata>
<path class="st0" d="M1221.1,577.9c-20.1-35.6-58.3-59.7-102.1-59.7c-9.7,0-19.2,1.2-28.2,3.4c-14-13.3-32.9-21.5-53.7-21.5
	c-12.6,0-24.4,3-34.9,8.3c-12.7-25.9-39.3-43.8-70.1-43.8c-13.9,0-27,3.7-38.4,10.1c-10.7-10.8-23.8-19.3-38.4-24.5
	c-1.6-41.6-35.8-74.9-77.9-74.9c-12.5,0-24.3,3-34.8,8.2c-6.8-15.9-22.5-27-40.9-27c-23.8,0-43.3,18.8-44.4,42.3
	c-6.5-10.3-18-17.1-31.1-17.1c-15.2,0-28.2,9.2-33.8,22.2c-3.4-1.5-6.8-2.8-10.4-3.8c-4.8-1.8-10.1-2.8-15.5-2.8c-0.2,0-0.4,0-0.5,0
	c-1.8-0.1-3.6-0.2-5.4-0.2c-31.8,0-59.2,18.9-71.6,46c-3.2-0.7-6.5-1-9.8-1c-19.1,0-35.6,11.3-43.2,27.6
	c-12.9-5.9-27.3-9.2-42.4-9.2c-30.1,0-57.1,13-75.8,33.6c-8.3-7-19-11.1-30.6-11.1c-20,0-37.2,12.4-44.2,29.9
	c-5.7-3.8-12.5-6-19.8-6c-12.1,0-22.7,6-29.2,15.2c-9.6-2.6-19.8-3.9-30.2-3.9c-33.6,0-63.8,14.1-85.2,36.7
	c-8.2-4.4-17.6-6.9-27.6-6.9c-21.9,0-41,12-51.1,29.8H1221.1z M504,530.7h-0.4c0.1,0,0.2-0.1,0.2-0.1
	C503.9,530.6,503.9,530.7,504,530.7z"/>
<circle class="st1" cx="813" cy="50" r="50"/>
<path class="st2" d="M947.3,102.5c-0.8,0-1.5,0-2.3,0c-16.1,0.6-31.7-5.5-42.6-17.3c-14.1-15.3-34.4-24.9-56.8-24.9
	c-27.4,0-51.4,14.2-65.1,35.7c-2.6,4.1-7.1,6.5-11.9,6.5c-0.1,0-0.2,0-0.3,0c-16.7,0-32.4,4.3-46.1,11.8
	c-30.2,16.5-10.8,26.5-44.9,30.9l-7.5,7.4h14.1h70.8h256.1C1004,123.8,978.1,102.5,947.3,102.5z"/>
<path class="st2" d="M222.1,300.5c-0.3,0-0.6,0-0.9,0c-6.1,0.2-12-2.1-16.1-6.5c-5.3-5.8-13-9.4-21.4-9.4
	c-10.3,0-19.4,5.4-24.6,13.5c-1,1.5-2.7,2.5-4.5,2.5c0,0-0.1,0-0.1,0c-6.3,0-12.2,1.6-17.4,4.4c-11.4,6.2-4.1,10-16.9,11.6l-2.8,2.8
	h5.3h26.7h96.6C243.5,308.6,233.7,300.5,222.1,300.5z"/>
<path class="st2" d="M447.1,89.8c0.3,0,0.7,0,1,0c6.9,0.2,13.7-2.4,18.4-7.5c6.1-6.6,14.8-10.8,24.5-10.8c11.8,0,22.2,6.1,28.1,15.4
	c1.1,1.8,3,2.8,5.1,2.8c0,0,0.1,0,0.1,0c7.2,0,14,1.8,19.9,5.1c13,7.1,4.6,11.4,19.4,13.3l3.2,3.2h-6.1h-30.6H419.6
	C422.6,99,433.7,89.8,447.1,89.8z"/>
<g>
	<circle class="st0" cx="224.4" cy="400.5" r="31.9"/>
	<circle class="st0" cx="224.4" cy="368.7" r="18.4"/>
	<circle class="st0" cx="224.4" cy="442" r="41.5"/>
	<g>
		<rect x="222.9" y="414.6" class="st3" width="3" height="127.2"/>
	</g>
	<g>
		
			<rect x="217.1" y="431.8" transform="matrix(0.1539 -0.9881 0.9881 0.1539 -247.4648 586.3091)" class="st3" width="3" height="11.7"/>
	</g>
</g>
<g>
	<circle class="st3" cx="1181.1" cy="513.5" r="18"/>
	<g>
		<rect x="1179.7" y="513.5" class="st4" width="3" height="35.2"/>
	</g>
	<path class="st3" d="M1181.2,523.4"/>
	<g>
		
			<rect x="1175.9" y="520.9" transform="matrix(0.3898 -0.9209 0.9209 0.3898 234.9162 1404.5773)" class="st4" width="3" height="8.3"/>
	</g>
</g>
<g>
	<circle class="st3" cx="44.8" cy="524.4" r="15"/>
	<g>
		<rect x="43.2" y="524.4" class="st4" width="3" height="37.4"/>
	</g>
	<path class="st3" d="M44.7,532.6"/>
	<g>
		
			<rect x="44.5" y="532.5" transform="matrix(0.9208 -0.3899 0.3899 0.9208 -204.4316 60.9609)" class="st4" width="6.9" height="3"/>
	</g>
</g>
<g>
	<circle class="st3" cx="148.3" cy="511.5" r="20.8"/>
	<circle class="st3" cx="148.3" cy="487.5" r="15.4"/>
	<g>
		<rect x="147.3" y="485.6" class="st1" width="2" height="69.4"/>
	</g>
	<path class="st3" d="M148.3,513"/>
	<g>
		<rect x="148" y="513.9" transform="matrix(0.921 -0.3897 0.3897 0.921 -188.5585 100.219)" class="st1" width="9.6" height="2"/>
	</g>
</g>
<g>
	<circle class="st3" cx="1013.2" cy="422.9" r="31.8"/>
	<circle class="st3" cx="1013.2" cy="386.1" r="23.6"/>
	<g>
		<rect x="1012.2" y="383.2" class="st1" width="2" height="130.7"/>
	</g>
	<path class="st3" d="M1013.2,425.2"/>
	<g>
		
			<rect x="1012.6" y="427" transform="matrix(0.921 -0.3897 0.3897 0.921 -86.1686 431.2643)" class="st1" width="14.7" height="2"/>
	</g>
</g>
<g>
	<g>
		<rect x="326.6" y="268.7" class="st5" width="173.2" height="309.3"/>
		<polygon class="st2" points="499.8,578 326.6,578 416.1,496.6 499.8,496.6 		"/>
		<rect x="326.6" y="268.7" class="st1" width="173.2" height="19.8"/>
		<g>
			<polygon class="st2" points="413.2,185.4 326.6,268.7 499.8,268.7 			"/>
			<path class="st5" d="M507.3,271.7H319.1l94.1-90.5L507.3,271.7z M334,265.7h158.3l-79.2-76.1L334,265.7z"/>
		</g>
		<rect x="424.8" y="233.2" class="st1" width="11" height="3.7"/>
		<rect x="388.3" y="233.2" class="st1" width="11" height="3.7"/>
		<g>
			<rect x="382.1" y="214" class="st5" width="61.9" height="4"/>
		</g>
		<path class="st2" d="M500,280.9c-1.6-2.3-4.9-6.9-8.7-6.9c-3.4,0-6.3,3.6-8.1,6c-0.3,0.4-1,0.4-1.2,0c-1.7-2.4-4.7-6-8.1-6
			s-6.3,3.6-8.1,6c-0.3,0.4-1,0.4-1.2,0c-1.7-2.4-4.7-6-8.1-6c-3.4,0-6.3,3.6-8.1,6c-0.3,0.4-1,0.4-1.2,0c-1.7-2.4-4.7-6-8.1-6
			s-6.3,3.6-8.1,6c-0.3,0.4-1,0.4-1.2,0c-1.7-2.4-4.7-6-8.1-6c-3.4,0-6.3,3.6-8.1,6c-0.3,0.4-1,0.4-1.2,0c-1.7-2.4-4.7-6-8.1-6
			c-3.4,0-6.3,3.6-8.1,6c-0.3,0.4-1,0.4-1.2,0c-1.7-2.4-4.7-6-8.1-6c-3.4,0-6.3,3.6-8.1,6c-0.3,0.4-1,0.4-1.2,0
			c-1.7-2.4-4.7-6-8.1-6s-6.3,3.6-8.1,6c-0.3,0.4-1,0.4-1.2,0c-1.7-2.4-4.7-6-8.1-6s-6.3,3.6-8.1,6c-0.3,0.4-1,0.4-1.2,0
			c-1.7-2.4-4.7-6-8.1-6c-3.8,0-7.1,4.6-8.7,6.9"/>
		<rect x="439.5" y="467.4" class="st4" width="34.4" height="6.1"/>
		<rect x="432.6" y="476.3" class="st4" width="48.2" height="6.1"/>
		<rect x="425.7" y="485.4" class="st4" width="61.9" height="6.1"/>
		<rect x="442.4" y="394.3" class="st2" width="27.5" height="67.6"/>
		<rect x="446.7" y="400.9" class="st4" width="18.9" height="37.9"/>
		<rect x="452.4" y="441.9" class="st4" width="7.6" height="3.1"/>
		
			<rect x="386" y="423.4" transform="matrix(6.123234e-17 -1 1 6.123234e-17 3.2932 859.5767)" class="st2" width="90.8" height="9.6"/>
		
			<rect x="436.5" y="423.4" transform="matrix(6.123234e-17 -1 1 6.123234e-17 53.7496 910.033)" class="st2" width="90.8" height="9.6"/>
		<rect x="324.6" y="353.7" class="st2" width="176.5" height="22.9"/>
		<path class="st1" d="M326.6,361.9c1.6,2.3,4.9,6.9,8.7,6.9c3.4,0,6.3-3.6,8.1-6c0.3-0.4,1-0.4,1.2,0c1.7,2.4,4.7,6,8.1,6
			s6.3-3.6,8.1-6c0.3-0.4,1-0.4,1.2,0c1.7,2.4,4.7,6,8.1,6s6.3-3.6,8.1-6c0.3-0.4,1-0.4,1.2,0c1.7,2.4,4.7,6,8.1,6
			c3.4,0,6.3-3.6,8.1-6c0.3-0.4,1-0.4,1.2,0c1.7,2.4,4.7,6,8.1,6c3.4,0,6.3-3.6,8.1-6c0.3-0.4,1-0.4,1.2,0c1.7,2.4,4.7,6,8.1,6
			c3.4,0,6.3-3.6,8.1-6c0.3-0.4,1-0.4,1.2,0c1.7,2.4,4.7,6,8.1,6s6.3-3.6,8.1-6c0.3-0.4,1-0.4,1.2,0c1.7,2.4,4.7,6,8.1,6
			c3.4,0,6.3-3.6,8.1-6c0.3-0.4,1-0.4,1.2,0c1.7,2.4,4.7,6,8.1,6s6.3-3.6,8.1-6c0.3-0.4,1-0.4,1.2,0c1.7,2.4,4.7,6,8.1,6
			c3.8,0,7.1-4.6,8.7-6.9"/>
		<polygon class="st1" points="493.4,387.5 419.9,387.5 415.4,376.6 497.9,376.6 		"/>
		<g>
			<path class="st1" d="M482.3,413.2c-1.5,0-2.8-1.2-2.8-2.8s1.2-2.8,2.8-2.8V413.2z"/>
			<path class="st1" d="M482.3,413.2c1.5,0,2.8,1.2,2.8,2.8s-1.2,2.8-2.8,2.8V413.2z"/>
			<path class="st1" d="M482.3,424.2c-1.5,0-2.8-1.2-2.8-2.8s1.2-2.8,2.8-2.8V424.2z"/>
			<path class="st1" d="M482.3,424.2c1.5,0,2.8,1.2,2.8,2.8s-1.2,2.8-2.8,2.8V424.2z"/>
			<path class="st1" d="M482.3,435.2c-1.5,0-2.8-1.2-2.8-2.8s1.2-2.8,2.8-2.8V435.2z"/>
			<path class="st1" d="M482.3,435.2c1.5,0,2.8,1.2,2.8,2.8s-1.2,2.8-2.8,2.8V435.2z"/>
		</g>
		<g>
			<path class="st1" d="M431.4,440.7c-1.5,0-2.8-1.2-2.8-2.8s1.2-2.8,2.8-2.8V440.7z"/>
			<path class="st1" d="M431.4,429.7c1.5,0,2.8,1.2,2.8,2.8s-1.2,2.8-2.8,2.8V429.7z"/>
			<path class="st1" d="M431.4,429.7c-1.5,0-2.8-1.2-2.8-2.8s1.2-2.8,2.8-2.8V429.7z"/>
			<path class="st1" d="M431.4,418.7c1.5,0,2.8,1.2,2.8,2.8s-1.2,2.8-2.8,2.8V418.7z"/>
			<path class="st1" d="M431.4,407.7c1.5,0,2.8,1.2,2.8,2.8s-1.2,2.8-2.8,2.8V407.7z"/>
			<path class="st1" d="M431.4,418.7c-1.5,0-2.8-1.2-2.8-2.8s1.2-2.8,2.8-2.8V418.7z"/>
		</g>
		
			<rect x="445.8" y="245.6" transform="matrix(0.7071 -0.7071 0.7071 0.7071 -44.0841 389.5705)" class="st1" width="4.9" height="4.9"/>
		<g>
			<polygon class="st2" points="469.7,381.9 456.7,385.7 443.6,381.9 456.7,378.1 			"/>
		</g>
		
			<rect x="410.3" y="201.5" transform="matrix(0.7071 -0.7071 0.7071 0.7071 -23.2908 351.585)" class="st1" width="4.9" height="4.9"/>
		
			<rect x="374.4" y="245.6" transform="matrix(0.7071 -0.7071 0.7071 0.7071 -64.9868 339.1069)" class="st1" width="4.9" height="4.9"/>
		<rect x="420.9" y="506.4" class="st5" width="71.6" height="63.5"/>
		<polygon class="st5" points="413.4,569.9 346.6,569.9 413.4,510.5 		"/>
		<path class="st4" d="M435.2,257.3h-9.9v-17.1h9.9V257.3z M398.8,240.2h-9.9v17.1h9.9V240.2z M419.8,236.9v-5.1
			c0-4.3-3.5-7.7-7.7-7.7c-4.3,0-7.7,3.5-7.7,7.7v5.1H419.8z M404.3,239.7v18.9h15.4v-18.9H404.3z"/>
		<g>
			<path class="st1" d="M452.9,526h-25.5v-13.8h25.5V526z M429.4,524h21.5v-9.8h-21.5V524z"/>
		</g>
		<g>
			<path class="st1" d="M485,526h-25.5v-13.8H485V526z M461.5,524H483v-9.8h-21.5V524z"/>
		</g>
		<g>
			<path class="st1" d="M452.9,545.1h-25.5v-13.8h25.5V545.1z M429.4,543.1h21.5v-9.8h-21.5V543.1z"/>
		</g>
		<g>
			<path class="st1" d="M485,545.1h-25.5v-13.8H485V545.1z M461.5,543.1H483v-9.8h-21.5V543.1z"/>
		</g>
		<g>
			<path class="st1" d="M452.9,564.1h-25.5v-13.8h25.5V564.1z M429.4,562.1h21.5v-9.8h-21.5V562.1z"/>
		</g>
		<g>
			<path class="st1" d="M485,564.1h-25.5v-13.8H485V564.1z M461.5,562.1H483v-9.8h-21.5V562.1z"/>
		</g>
		<g>
			<rect x="495.3" y="462.1" class="st1" width="2" height="30"/>
		</g>
		<g>
			<rect x="482.1" y="462.1" class="st1" width="2" height="30"/>
		</g>
		<g>
			<rect x="455.7" y="462.1" class="st1" width="2" height="30"/>
		</g>
		<g>
			<rect x="429.3" y="462.1" class="st1" width="2" height="30"/>
		</g>
		<g>
			<rect x="442.5" y="462.1" class="st1" width="2" height="30"/>
		</g>
		<g>
			<rect x="468.9" y="462.1" class="st1" width="2" height="30"/>
		</g>
		<g>
			<g>
				<rect x="376.4" y="394" class="st4" width="20.8" height="25.8"/>
				<rect x="350.8" y="394" class="st4" width="20.8" height="25.8"/>
				<rect x="402.1" y="394" class="st4" width="10.4" height="25.8"/>
				<rect x="335.4" y="394" class="st4" width="10.4" height="25.8"/>
				<rect x="376.4" y="423.2" class="st4" width="20.8" height="25.9"/>
				<rect x="402.1" y="423.2" class="st4" width="10.4" height="25.9"/>
				<rect x="335.4" y="423.2" class="st4" width="10.4" height="25.9"/>
				<rect x="350.8" y="423.2" class="st4" width="20.8" height="25.9"/>
			</g>
			<g>
				<polygon class="st2" points="344.9,389.4 348.3,385.9 351.8,389.4 				"/>
				<polygon class="st2" points="370.5,389.4 374,385.9 377.4,389.4 				"/>
				<polygon class="st2" points="396.1,389.4 399.6,385.9 403,389.4 				"/>
			</g>
		</g>
		<g>
			<polygon class="st2" points="344.9,460.2 348.3,456.8 351.8,460.2 			"/>
			<polygon class="st2" points="370.5,460.2 374,456.8 377.4,460.2 			"/>
			<polygon class="st2" points="396.1,460.2 399.6,456.8 403,460.2 			"/>
		</g>
		<g>
			<polygon class="st4" points="397.2,507.1 397.2,494 376.4,494 376.4,520 383,520 			"/>
			<rect x="376.4" y="464.9" class="st4" width="20.8" height="25.8"/>
			<polygon class="st4" points="411.5,494 402.1,494 402.1,502.6 			"/>
			<rect x="402.1" y="464.9" class="st4" width="10.4" height="25.8"/>
			<rect x="335.4" y="464.9" class="st4" width="10.4" height="25.8"/>
			<rect x="350.8" y="464.9" class="st1" width="20.8" height="25.8"/>
			<rect x="335.4" y="494" class="st4" width="10.4" height="25.9"/>
			<rect x="350.8" y="494" class="st1" width="20.8" height="25.9"/>
		</g>
		<g>
			<line class="st6" x1="416.5" y1="492.1" x2="416.5" y2="462.1"/>
			<line class="st6" x1="404.4" y1="502.5" x2="404.4" y2="472.5"/>
			<line class="st6" x1="392.3" y1="512.9" x2="392.3" y2="482.9"/>
			<line class="st6" x1="380.2" y1="523.4" x2="380.2" y2="493.4"/>
			<line class="st6" x1="368.1" y1="533.8" x2="368.1" y2="503.8"/>
			<line class="st6" x1="356" y1="544.2" x2="356" y2="514.2"/>
			<line class="st6" x1="344" y1="554.6" x2="344" y2="524.6"/>
			<line class="st6" x1="331.9" y1="565" x2="331.9" y2="535"/>
		</g>
		<g>
			<g>
				<polygon class="st4" points="327.5,541.3 324.9,538.3 415.8,460.1 501.5,460.1 501.5,464.1 417.2,464.1 				"/>
			</g>
		</g>
		<g>
			<g>
				<rect x="376.4" y="303.8" class="st1" width="20.8" height="17.5"/>
				<rect x="350.8" y="303.8" class="st4" width="20.8" height="17.5"/>
				<rect x="402.1" y="303.8" class="st4" width="10.4" height="17.5"/>
				<rect x="335.4" y="303.8" class="st4" width="10.4" height="17.5"/>
				<rect x="376.4" y="324.8" class="st1" width="20.8" height="20.4"/>
				<rect x="402.1" y="324.8" class="st4" width="10.4" height="20.4"/>
				<rect x="335.4" y="324.8" class="st4" width="10.4" height="20.4"/>
				<rect x="350.8" y="324.8" class="st4" width="20.8" height="20.4"/>
			</g>
			<g>
				<polygon class="st2" points="344.9,299.2 348.3,295.8 351.8,299.2 				"/>
				<polygon class="st2" points="370.5,299.2 374,295.8 377.4,299.2 				"/>
				<polygon class="st2" points="396.1,299.2 399.6,295.8 403,299.2 				"/>
			</g>
		</g>
		<g>
			<g>
				<rect x="473.5" y="303.8" class="st4" width="10.4" height="17.5"/>
				<rect x="447.8" y="303.8" class="st4" width="20.8" height="17.5"/>
				<rect x="432.5" y="303.8" class="st4" width="10.4" height="17.5"/>
				<rect x="473.5" y="324.8" class="st4" width="10.4" height="14.9"/>
				<rect x="432.5" y="324.8" class="st4" width="10.4" height="14.9"/>
				<rect x="447.8" y="324.8" class="st4" width="20.8" height="14.9"/>
			</g>
			<g>
				<polygon class="st2" points="441.9,299.2 445.3,295.8 448.8,299.2 				"/>
				<polygon class="st2" points="467.6,299.2 471,295.8 474.4,299.2 				"/>
			</g>
		</g>
		<path class="st1" d="M426.7,338.3v15.3h59.9v-15.3H426.7z M435.4,350.2h-2.3V342h2.3V350.2z M444.3,350.2H442V342h2.3V350.2z
			 M453.2,350.2h-2.3V342h2.3V350.2z M462.1,350.2h-2.3V342h2.3V350.2z M471,350.2h-2.3V342h2.3V350.2z M479.8,350.2h-2.3V342h2.3
			V350.2z"/>
	</g>
	<rect x="537.3" y="268.7" class="st5" width="173.2" height="309.3"/>
	<rect x="537.3" y="268.7" class="st1" width="173.2" height="19.8"/>
	<g>
		<polygon class="st2" points="623.9,185.4 537.3,268.7 710.5,268.7 		"/>
		<path class="st1" d="M718,271.7H529.9l94.1-90.5L718,271.7z M544.8,265.7h158.3l-79.2-76.1L544.8,265.7z"/>
	</g>
	<g>
		<rect x="597" y="209.6" class="st1" width="53.7" height="4"/>
	</g>
	<rect x="665.6" y="296.3" class="st4" width="20.8" height="50.5"/>
	<g>
		<path class="st1" d="M646.8,349.5h-42.4v-56.4h42.4V349.5z M606.4,347.5h38.4v-52.4h-38.4V347.5z"/>
	</g>
	<rect x="609.3" y="297.9" class="st1" width="32.6" height="46.7"/>
	<rect x="690.5" y="296.3" class="st4" width="9.4" height="50.5"/>
	<g>
		<rect x="558.8" y="478.5" class="st4" width="34.4" height="6.1"/>
		<rect x="558.8" y="489.1" class="st4" width="34.4" height="6.1"/>
		<rect x="558.8" y="499.7" class="st4" width="34.4" height="6.1"/>
		<rect x="558.8" y="510.2" class="st4" width="34.4" height="6.1"/>
		<rect x="558.8" y="520.8" class="st4" width="34.4" height="6.1"/>
		<rect x="558.8" y="531.4" class="st4" width="34.4" height="6.1"/>
		<rect x="558.8" y="541.9" class="st4" width="34.4" height="6.1"/>
		<rect x="558.8" y="552.5" class="st4" width="34.4" height="6.1"/>
		<rect x="558.8" y="563.1" class="st4" width="34.4" height="6.1"/>
	</g>
	<g>
		<rect x="562.4" y="401.8" class="st1" width="27.5" height="68.9"/>
		<rect x="566.1" y="407.8" class="st4" width="4.8" height="31"/>
		<g>
			<path class="st4" d="M586,467.3h-20.4v-25.2H586V467.3z M566.6,466.3H585v-23.2h-18.4V466.3z"/>
		</g>
		<rect x="573.4" y="407.8" class="st4" width="4.8" height="31"/>
		<rect x="580.7" y="407.8" class="st4" width="4.8" height="31"/>
	</g>
	<rect x="535.3" y="353.7" class="st1" width="176.5" height="22.9"/>
	<rect x="663.9" y="326.8" class="st5" width="40.5" height="3.4"/>
	
		<rect x="562.6" y="296.3" transform="matrix(-1 -1.224647e-16 1.224647e-16 -1 1146.051 643.1507)" class="st4" width="20.8" height="50.5"/>
	
		<rect x="549.2" y="296.3" transform="matrix(-1 -1.224647e-16 1.224647e-16 -1 1107.8143 643.1507)" class="st4" width="9.4" height="50.5"/>
	
		<rect x="544.6" y="326.8" transform="matrix(-1 -1.224647e-16 1.224647e-16 -1 1129.7217 656.9138)" class="st5" width="40.5" height="3.4"/>
	<path class="st2" d="M542.6,376.2v94.4h10v-40.3c0-29.4,9.6-46.3,24-46.3h0c14.4,0,24,16.9,24,46.3v40.3h10v-94.4H542.6z"/>
	<g>
		<path class="st1" d="M549.1,414.6l-2-0.1v-33.7h21.4l-3,1.9c-4.1,2.5-7.5,6.3-10.2,11.4C552.3,399.5,550.2,406.4,549.1,414.6z
			 M549.1,382.7v21.6c1.1-4.2,2.6-8,4.3-11.3c2.3-4.3,5.1-7.7,8.3-10.3H549.1z M604,414.6c-1.1-8.2-3.2-15.1-6.1-20.6
			c-2.7-5.1-6.1-8.9-10.2-11.4l-3-1.9H606v33.7L604,414.6z M591.4,382.7c3.2,2.6,6,6,8.3,10.3c1.7,3.3,3.2,7.1,4.3,11.3v-21.6H591.4
			z"/>
	</g>
	<g>
		<rect x="600.8" y="479.4" class="st2" width="4" height="87.7"/>
	</g>
	<g>
		<rect x="546.7" y="479.4" class="st2" width="4" height="87.7"/>
	</g>
	<path class="st4" d="M588.5,398.4c-2.8-5.4-7.3-8.9-12.3-8.9c-5,0-9.5,3.5-12.3,8.9H588.5z"/>
	<rect x="575.4" y="387.9" class="st5" width="1.6" height="11.7"/>
	
		<rect x="580.2" y="389.6" transform="matrix(0.7071 0.7071 -0.7071 0.7071 449.8004 -294.9932)" class="st5" width="1.6" height="11.7"/>
	
		<rect x="570.4" y="389.5" transform="matrix(-0.7071 0.7071 -0.7071 -0.7071 1254.7098 270.976)" class="st5" width="1.6" height="11.7"/>
	<g>
		
			<rect x="604.4" y="443.3" transform="matrix(0.7071 -0.7071 0.7071 0.7071 -136.7991 558.2004)" class="st1" width="1.9" height="1.9"/>
		
			<rect x="604.4" y="434.7" transform="matrix(0.7071 -0.7071 0.7071 0.7071 -130.7128 555.6794)" class="st1" width="1.9" height="1.9"/>
		
			<rect x="604.4" y="426" transform="matrix(0.7071 -0.7071 0.7071 0.7071 -124.6266 553.1584)" class="st1" width="1.9" height="1.9"/>
		
			<rect x="604.4" y="451.9" transform="matrix(0.7071 -0.7071 0.7071 0.7071 -142.8853 560.7214)" class="st1" width="1.9" height="1.9"/>
		
			<rect x="604.4" y="460.5" transform="matrix(0.7071 -0.7071 0.7071 0.7071 -148.9715 563.2424)" class="st1" width="1.9" height="1.9"/>
	</g>
	<g>
		
			<rect x="546.8" y="443.3" transform="matrix(0.7071 -0.7071 0.7071 0.7071 -153.6714 517.467)" class="st1" width="1.9" height="1.9"/>
		
			<rect x="546.8" y="434.7" transform="matrix(0.7071 -0.7071 0.7071 0.7071 -147.5852 514.946)" class="st1" width="1.9" height="1.9"/>
		
			<rect x="546.8" y="426" transform="matrix(0.7071 -0.7071 0.7071 0.7071 -141.499 512.425)" class="st1" width="1.9" height="1.9"/>
		
			<rect x="546.8" y="451.9" transform="matrix(0.7071 -0.7071 0.7071 0.7071 -159.7576 519.9879)" class="st1" width="1.9" height="1.9"/>
		
			<rect x="546.8" y="460.5" transform="matrix(0.7071 -0.7071 0.7071 0.7071 -165.8439 522.5089)" class="st1" width="1.9" height="1.9"/>
	</g>
	<rect x="652" y="288.6" class="st2" width="6.5" height="64.7"/>
	<rect x="590.7" y="288.6" class="st2" width="6.5" height="64.7"/>
	<path class="st2" d="M639,323.3v-3.6l-9.8,1.3c0-0.7-0.3-1.4-0.7-1.9l8-5.7l-2.6-2.6l-5.7,7.9c-0.5-0.5-1.2-0.8-1.9-0.9l2.6-14.3
		h-6.2l2.6,14.3c-0.6,0.1-1.2,0.4-1.7,0.7l-5.9-7.8l-2.6,2.6l7.8,5.9c-0.3,0.5-0.5,1.1-0.6,1.7l-9.8-1.3v3.6l9.9-1.3
		c0.1,0.7,0.5,1.3,0.9,1.7l-8.2,5.9l2.6,2.6l5.9-8.3c0.5,0.4,1.1,0.7,1.8,0.8l-2.7,14.8h6.2l-2.7-14.8c0.6-0.1,1.1-0.3,1.6-0.6
		l6.1,8.1l2.6-2.6l-8.1-6.1c0.4-0.4,0.6-0.9,0.8-1.5L639,323.3z"/>
	<rect x="695.8" y="463.4" class="st2" width="6.9" height="6.9"/>
	<rect x="618.9" y="463.4" class="st2" width="6.9" height="6.9"/>
	<rect x="668.2" y="464.7" class="st1" width="23.9" height="4.1"/>
	<rect x="629.4" y="464.7" class="st1" width="23.9" height="4.1"/>
	<rect x="657.7" y="463.4" class="st2" width="6.9" height="6.9"/>
	<g>
		<rect x="657" y="363.2" class="st5" width="35.8" height="4.1"/>
		<rect x="604.4" y="363.2" class="st5" width="35.8" height="4.1"/>
		<rect x="552.3" y="363.2" class="st5" width="35.8" height="4.1"/>
		<g>
			<rect x="696.5" y="361.8" class="st2" width="6.9" height="6.9"/>
			<rect x="644.9" y="361.8" class="st2" width="6.9" height="6.9"/>
			<rect x="593.2" y="361.8" class="st2" width="6.9" height="6.9"/>
			<rect x="541.6" y="361.8" class="st2" width="6.9" height="6.9"/>
		</g>
	</g>
	<g>
		<path class="st2" d="M574.4,276.1c0,3.1-2.5,5.6-5.6,5.6c-3.1,0-5.6-2.5-5.6-5.6H574.4z"/>
		<path class="st5" d="M574.4,276.1c0-3.1,2.5-5.6,5.6-5.6c3.1,0,5.6,2.5,5.6,5.6H574.4z"/>
		<path class="st2" d="M596.9,276.1c0,3.1-2.5,5.6-5.6,5.6c-3.1,0-5.6-2.5-5.6-5.6H596.9z"/>
		<path class="st5" d="M596.9,276.1c0-3.1,2.5-5.6,5.6-5.6c3.1,0,5.6,2.5,5.6,5.6H596.9z"/>
		<path class="st2" d="M619.4,276.1c0,3.1-2.5,5.6-5.6,5.6c-3.1,0-5.6-2.5-5.6-5.6H619.4z"/>
		<path class="st5" d="M619.4,276.1c0-3.1,2.5-5.6,5.6-5.6c3.1,0,5.6,2.5,5.6,5.6H619.4z"/>
		<path class="st2" d="M641.9,276.1c0,3.1-2.5,5.6-5.6,5.6c-3.1,0-5.6-2.5-5.6-5.6H641.9z"/>
		<path class="st5" d="M641.9,276.1c0-3.1,2.5-5.6,5.6-5.6c3.1,0,5.6,2.5,5.6,5.6H641.9z"/>
		<path class="st2" d="M664.5,276.1c0,3.1-2.5,5.6-5.6,5.6c-3.1,0-5.6-2.5-5.6-5.6H664.5z"/>
		<path class="st2" d="M687,276.1c0,3.1-2.5,5.6-5.6,5.6c-3.1,0-5.6-2.5-5.6-5.6H687z"/>
		<path class="st5" d="M664.5,276.1c0-3.1,2.5-5.6,5.6-5.6c3.1,0,5.6,2.5,5.6,5.6H664.5z"/>
	</g>
	<g>
		<path class="st1" d="M634.1,480.7c0,2.1-1.7,3.8-3.8,3.8c-2.1,0-3.8-1.7-3.8-3.8H634.1z"/>
		<path class="st2" d="M634.1,480.7c0-2.1,1.7-3.8,3.8-3.8s3.8,1.7,3.8,3.8H634.1z"/>
		<path class="st1" d="M649.4,480.7c0,2.1-1.7,3.8-3.8,3.8s-3.8-1.7-3.8-3.8H649.4z"/>
		<path class="st2" d="M649.4,480.7c0-2.1,1.7-3.8,3.8-3.8c2.1,0,3.8,1.7,3.8,3.8H649.4z"/>
		<path class="st1" d="M664.7,480.7c0,2.1-1.7,3.8-3.8,3.8c-2.1,0-3.8-1.7-3.8-3.8H664.7z"/>
		<path class="st2" d="M664.7,480.7c0-2.1,1.7-3.8,3.8-3.8s3.8,1.7,3.8,3.8H664.7z"/>
		<path class="st1" d="M680,480.7c0,2.1-1.7,3.8-3.8,3.8c-2.1,0-3.8-1.7-3.8-3.8H680z"/>
		<path class="st2" d="M680,480.7c0-2.1,1.7-3.8,3.8-3.8c2.1,0,3.8,1.7,3.8,3.8H680z"/>
		<path class="st1" d="M695.2,480.7c0,2.1-1.7,3.8-3.8,3.8c-2.1,0-3.8-1.7-3.8-3.8H695.2z"/>
	</g>
	<g>
		<rect x="626.5" y="225.1" class="st4" width="15.4" height="13.2"/>
		<rect x="607.5" y="225.1" class="st4" width="15.4" height="13.2"/>
		<rect x="626.5" y="242" class="st4" width="15.4" height="13.2"/>
		<rect x="607.5" y="242" class="st4" width="15.4" height="13.2"/>
	</g>
	<g>
		<g>
			<path class="st5" d="M619.2,200.3h2.6c0.8,0,1.4,0.6,1.4,1.4v2.6h-2.6c-0.8,0-1.4-0.6-1.4-1.4V200.3z"/>
			<path class="st5" d="M628.3,200.3v2.6c0,0.8-0.6,1.4-1.4,1.4h-2.6v-2.6c0-0.8,0.6-1.4,1.4-1.4H628.3z"/>
		</g>
		<path class="st5" d="M623.6,194.5l1.9,1.9c0.5,0.5,0.5,1.4,0,2l-1.9,1.9l-1.9-1.9c-0.5-0.5-0.5-1.4,0-2L623.6,194.5z"/>
	</g>
	<g>
		<g>
			<path class="st5" d="M663.8,240.9v4.2c0,1.2-1,2.2-2.2,2.2h-4.2V243c0-1.2,1-2.2,2.2-2.2H663.8z"/>
			<path class="st5" d="M663.8,255.4h-4.2c-1.2,0-2.2-1-2.2-2.2V249h4.2c1.2,0,2.2,1,2.2,2.2V255.4z"/>
		</g>
		<path class="st5" d="M672.9,247.9l-3,3c-0.9,0.9-2.2,0.9-3.1,0l-3-3l3-3c0.9-0.9,2.2-0.9,3.1,0L672.9,247.9z"/>
		<circle class="st5" cx="651.2" cy="248.5" r="2.2"/>
	</g>
	<g>
		<g>
			<path class="st5" d="M587.5,255.4v-4.2c0-1.2,1-2.2,2.2-2.2h4.2v4.2c0,1.2-1,2.2-2.2,2.2H587.5z"/>
			<path class="st5" d="M587.5,240.9l4.2,0c1.2,0,2.2,1,2.2,2.2v4.2h-4.2c-1.2,0-2.2-1-2.2-2.2V240.9z"/>
		</g>
		<path class="st5" d="M578.4,248.3l3-3c0.9-0.9,2.2-0.9,3.1,0l3,3l-3,3c-0.9,0.9-2.2,0.9-3.1,0L578.4,248.3z"/>
		<circle class="st5" cx="600.1" cy="247.8" r="2.2"/>
	</g>
	<g>
		<g>
			<rect x="681.7" y="388.9" class="st4" width="14" height="38.4"/>
			<rect x="644.6" y="388.9" class="st4" width="33.3" height="38.4"/>
			<rect x="626.9" y="388.9" class="st4" width="14" height="38.4"/>
			<rect x="681.7" y="430.7" class="st4" width="14" height="22.6"/>
			<rect x="626.9" y="430.7" class="st4" width="14" height="22.6"/>
			<rect x="644.6" y="430.7" class="st4" width="33.3" height="22.6"/>
		</g>
	</g>
	<g>
		<path class="st2" d="M701.9,501.7l-4.6-1.6c-10.8-3.9-23.2-5.9-35.8-5.9s-24.9,2.1-35.7,5.9l-4.6,1.6L620,498l4.6-1.6
			c11.3-4,24.1-6.2,37.1-6.2s25.8,2.1,37.1,6.2l4.6,1.6L701.9,501.7z"/>
	</g>
	<path class="st1" d="M695.7,504.7c-10-3.6-21.7-5.7-34.1-5.7c-12.4,0-24.1,2.1-34.1,5.7v63.6h68.2V504.7z"/>
	<g>
		<path class="st4" d="M658.3,506c-8.3,0.3-16.5,1.5-23.9,3.7V529h23.9V506z"/>
		<path class="st4" d="M664.5,506V529h24.3v-19.4C681.3,507.5,673,506.2,664.5,506z"/>
	</g>
	<g>
		<path class="st5" d="M658.4,561.3H648v-25.6h10.3V561.3z M649,560.3h8.3v-23.6H649V560.3z"/>
	</g>
	<g>
		<path class="st5" d="M643.8,561.3h-10.3v-25.6h10.3V561.3z M634.5,560.3h8.3v-23.6h-8.3V560.3z"/>
	</g>
	<g>
		<path class="st5" d="M689.2,561.3h-10.3v-25.6h10.3V561.3z M679.9,560.3h8.3v-23.6h-8.3V560.3z"/>
	</g>
	<g>
		<path class="st5" d="M674.7,561.3h-10.3v-25.6h10.3V561.3z M665.3,560.3h8.3v-23.6h-8.3V560.3z"/>
	</g>
	<rect x="604.4" y="255" class="st1" width="40.8" height="4.4"/>
	<g>
		<rect x="752.1" y="268.7" class="st5" width="173.2" height="309.3"/>
		<polygon class="st2" points="925.4,578 752.1,578 841.6,496.6 925.4,496.6 		"/>
		<rect x="752.1" y="268.7" class="st5" width="173.2" height="19.8"/>
		<g>
			<polygon class="st2" points="838.7,185.4 752.1,268.7 925.4,268.7 			"/>
			<path class="st5" d="M932.8,271.7H744.7l94.1-90.5L932.8,271.7z M759.6,265.7h158.3l-79.2-76.1L759.6,265.7z"/>
		</g>
		<g>
			<rect x="807.7" y="214" class="st5" width="61.9" height="4"/>
		</g>
		<path class="st2" d="M752.2,274c1.6,2.3,4.9,6.9,8.7,6.9c3.4,0,6.3-3.6,8.1-6c0.3-0.4,1-0.4,1.2,0c1.7,2.4,4.7,6,8.1,6
			s6.3-3.6,8.1-6c0.3-0.4,1-0.4,1.2,0c1.7,2.4,4.7,6,8.1,6s6.3-3.6,8.1-6c0.3-0.4,1-0.4,1.2,0c1.7,2.4,4.7,6,8.1,6s6.3-3.6,8.1-6
			c0.3-0.4,1-0.4,1.2,0c1.7,2.4,4.7,6,8.1,6c3.4,0,6.3-3.6,8.1-6c0.3-0.4,1-0.4,1.2,0c1.7,2.4,4.7,6,8.1,6c3.4,0,6.3-3.6,8.1-6
			c0.3-0.4,1-0.4,1.2,0c1.7,2.4,4.7,6,8.1,6s6.3-3.6,8.1-6c0.3-0.4,1-0.4,1.2,0c1.7,2.4,4.7,6,8.1,6s6.3-3.6,8.1-6
			c0.3-0.4,1-0.4,1.2,0c1.7,2.4,4.7,6,8.1,6s6.3-3.6,8.1-6c0.3-0.4,1-0.4,1.2,0c1.7,2.4,4.7,6,8.1,6c3.8,0,7.1-4.6,8.7-6.9"/>
		<rect x="858.1" y="476.3" class="st4" width="48.2" height="6.1"/>
		<rect x="851.2" y="485.4" class="st4" width="61.9" height="6.1"/>
		<rect x="750.1" y="353.7" class="st2" width="176.5" height="22.9"/>
		<rect x="846.5" y="506.4" class="st5" width="71.6" height="63.5"/>
		<polygon class="st5" points="839,569.9 772.1,569.9 839,510.5 		"/>
		<g>
			<rect x="856.6" y="514.4" class="st1" width="5" height="5"/>
			<g>
				<path class="st1" d="M877.5,561.3h-21.9v-30.7h21.9V561.3z M857.6,559.3h17.9v-26.7h-17.9V559.3z"/>
			</g>
			<rect x="864.1" y="514.4" class="st1" width="5" height="5"/>
			<rect x="871.6" y="514.4" class="st1" width="5" height="5"/>
			<rect x="856.6" y="521.3" class="st1" width="5" height="5"/>
			<rect x="864.1" y="521.3" class="st1" width="5" height="5"/>
			<rect x="871.6" y="521.3" class="st1" width="5" height="5"/>
		</g>
		<g>
			<rect x="887" y="514.4" class="st1" width="5" height="5"/>
			<g>
				<path class="st1" d="M908,561.3H886v-30.7H908V561.3z M888,559.3H906v-26.7H888V559.3z"/>
			</g>
			<rect x="894.5" y="514.4" class="st1" width="5" height="5"/>
			<rect x="902" y="514.4" class="st1" width="5" height="5"/>
			<rect x="887" y="521.3" class="st1" width="5" height="5"/>
			<rect x="894.5" y="521.3" class="st1" width="5" height="5"/>
			<rect x="902" y="521.3" class="st1" width="5" height="5"/>
		</g>
		<g>
			<g>
				<rect x="802" y="394" class="st4" width="20.8" height="25.8"/>
				<rect x="776.3" y="394" class="st1" width="20.8" height="25.8"/>
				<rect x="827.6" y="394" class="st4" width="10.4" height="25.8"/>
				<rect x="761" y="394" class="st4" width="10.4" height="25.8"/>
				<rect x="802" y="423.2" class="st4" width="20.8" height="25.9"/>
				<rect x="827.6" y="423.2" class="st4" width="10.4" height="25.9"/>
				<rect x="761" y="423.2" class="st4" width="10.4" height="25.9"/>
				<rect x="776.3" y="423.2" class="st1" width="20.8" height="25.9"/>
			</g>
			<g>
				<polygon class="st2" points="770.4,389.4 773.8,385.9 777.3,389.4 				"/>
				<polygon class="st2" points="796.1,389.4 799.5,385.9 802.9,389.4 				"/>
				<polygon class="st2" points="821.7,389.4 825.1,385.9 828.6,389.4 				"/>
			</g>
		</g>
		<g>
			<polygon class="st2" points="770.4,460.2 773.8,456.8 777.3,460.2 			"/>
			<polygon class="st2" points="796.1,460.2 799.5,456.8 802.9,460.2 			"/>
			<polygon class="st2" points="821.7,460.2 825.1,456.8 828.6,460.2 			"/>
		</g>
		<g>
			<polygon class="st4" points="822.7,507.1 822.7,494 802,494 802,520 808.5,520 			"/>
			<rect x="802" y="464.9" class="st4" width="20.8" height="25.8"/>
			<polygon class="st4" points="837,494 827.6,494 827.6,502.6 			"/>
			<rect x="827.6" y="464.9" class="st4" width="10.4" height="25.8"/>
			<rect x="761" y="464.9" class="st4" width="10.4" height="25.8"/>
			<rect x="776.3" y="464.9" class="st4" width="20.8" height="25.8"/>
			<rect x="761" y="494" class="st4" width="10.4" height="25.9"/>
			<rect x="776.3" y="494" class="st4" width="20.8" height="25.9"/>
		</g>
		<g>
			<line class="st6" x1="842" y1="492.1" x2="842" y2="462.1"/>
			<line class="st6" x1="829.9" y1="502.5" x2="829.9" y2="472.5"/>
			<line class="st6" x1="817.9" y1="512.9" x2="817.9" y2="482.9"/>
			<line class="st6" x1="805.8" y1="523.4" x2="805.8" y2="493.4"/>
			<line class="st6" x1="793.7" y1="533.8" x2="793.7" y2="503.8"/>
			<line class="st6" x1="781.6" y1="544.2" x2="781.6" y2="514.2"/>
			<line class="st6" x1="769.5" y1="554.6" x2="769.5" y2="524.6"/>
			<line class="st6" x1="757.4" y1="565" x2="757.4" y2="535"/>
		</g>
		<g>
			<g>
				<rect x="802" y="303.8" class="st4" width="20.8" height="17.5"/>
				<rect x="776.3" y="303.8" class="st4" width="20.8" height="17.5"/>
				<rect x="827.6" y="303.8" class="st4" width="10.4" height="17.5"/>
				<rect x="761" y="303.8" class="st4" width="10.4" height="17.5"/>
				<rect x="802" y="324.8" class="st4" width="20.8" height="20.4"/>
				<rect x="827.6" y="324.8" class="st4" width="10.4" height="20.4"/>
				<rect x="761" y="324.8" class="st4" width="10.4" height="20.4"/>
				<rect x="776.3" y="324.8" class="st4" width="20.8" height="20.4"/>
			</g>
			<g>
				<polygon class="st2" points="770.4,299.2 773.8,295.8 777.3,299.2 				"/>
				<polygon class="st2" points="796.1,299.2 799.5,295.8 802.9,299.2 				"/>
				<polygon class="st2" points="821.7,299.2 825.1,295.8 828.6,299.2 				"/>
			</g>
		</g>
		<g>
			<g>
				<rect x="899" y="303.8" class="st4" width="10.4" height="17.5"/>
				<rect x="873.3" y="303.8" class="st1" width="20.8" height="17.5"/>
				<rect x="858" y="303.8" class="st4" width="10.4" height="17.5"/>
				<rect x="899" y="324.8" class="st4" width="10.4" height="14.9"/>
				<rect x="858" y="324.8" class="st4" width="10.4" height="14.9"/>
				<rect x="873.3" y="324.8" class="st1" width="20.8" height="14.9"/>
			</g>
			<g>
				<polygon class="st2" points="867.4,299.2 870.9,295.8 874.3,299.2 				"/>
				<polygon class="st2" points="893.1,299.2 896.5,295.8 900,299.2 				"/>
			</g>
		</g>
		<polygon class="st1" points="860.2,252.8 860.2,254.4 848.9,254.4 848.9,252.8 844.3,252.8 844.3,254.4 833.1,254.4 833.1,252.8 
			828.5,252.8 828.5,254.4 817.3,254.4 817.3,252.8 812.7,252.8 812.7,264.1 817.3,264.1 817.3,260.1 828.5,260.1 828.5,264.1 
			833.1,264.1 833.1,260.1 844.3,260.1 844.3,264.1 848.9,264.1 848.9,260.1 860.2,260.1 860.2,264.1 864.8,264.1 864.8,252.8 		"/>
		<g>
			<g>
				<rect x="868.2" y="401.8" class="st1" width="27.5" height="68.9"/>
				<rect x="872.5" y="407.8" class="st4" width="19.1" height="50.2"/>
				<rect x="876" y="463.2" class="st4" width="11" height="3.6"/>
				<g>
					<rect x="886.1" y="405.1" class="st1" width="2" height="55.7"/>
				</g>
				<g>
					<rect x="876.4" y="405.1" class="st1" width="2" height="55.7"/>
				</g>
				<g>
					<rect x="871.1" y="449" class="st1" width="20.6" height="2"/>
				</g>
				<g>
					<path class="st1" d="M895.5,424.4h-2c0-3-5.1-5.5-11.1-5.5s-11.1,2.5-11.1,5.5h-2c0-4.2,5.8-7.5,13.1-7.5
						C889.7,416.9,895.5,420.2,895.5,424.4z"/>
				</g>
			</g>
			<path class="st2" d="M848.2,376.2v94.4h10v-40.3c0-29.4,9.6-46.3,24-46.3h0c14.4,0,24,16.9,24,46.3v40.3h10v-94.4H848.2z"/>
			<g>
				<path class="st5" d="M856.6,397.8c-0.3,0-0.6,0-0.9-0.1c-1.8-0.4-3-1.9-3-3.7v-13.3h21.4l-3,1.9c-4.1,2.5-7.5,6.3-10.2,11.4
					c-0.3,0.5-0.6,1.1-0.8,1.6C859.3,397,858,397.8,856.6,397.8z M854.7,382.7V394c0,1.1,0.7,1.6,1.4,1.8c0.7,0.2,1.6,0,2.1-1
					c0.3-0.6,0.6-1.2,0.9-1.7c2.3-4.3,5.1-7.7,8.3-10.3H854.7z M907.8,397.8c-1.5,0-2.8-0.8-3.4-2.2c-0.3-0.6-0.5-1.1-0.8-1.6
					c-2.7-5.1-6.1-8.9-10.2-11.4l-3-1.9h21.4V394c0,1.8-1.2,3.3-3,3.7C908.4,397.8,908.1,397.8,907.8,397.8z M897,382.7
					c3.2,2.6,6,6,8.3,10.3c0.3,0.6,0.6,1.1,0.9,1.7c0.5,1,1.4,1.2,2.1,1c0.7-0.2,1.4-0.7,1.4-1.8v-11.3H897z"/>
			</g>
			<circle class="st4" cx="873.1" cy="395.7" r="2"/>
			<circle class="st4" cx="890.4" cy="395.7" r="2"/>
			<circle class="st4" cx="881.7" cy="393.7" r="4.2"/>
			<g>
				<path class="st5" d="M910.7,462.1c0-0.3,0.2-0.5,0.5-0.5l0,0c0.3,0,0.5,0.2,0.5,0.5l0,0c0,0.3-0.2,0.5-0.5,0.5l0,0
					C910.9,462.6,910.7,462.4,910.7,462.1z M910.7,456.1c0-0.3,0.2-0.5,0.5-0.5l0,0c0.3,0,0.5,0.2,0.5,0.5l0,0
					c0,0.3-0.2,0.5-0.5,0.5l0,0C910.9,456.6,910.7,456.4,910.7,456.1z M910.7,450.1c0-0.3,0.2-0.5,0.5-0.5l0,0
					c0.3,0,0.5,0.2,0.5,0.5l0,0c0,0.3-0.2,0.5-0.5,0.5l0,0C910.9,450.6,910.7,450.4,910.7,450.1z M910.7,444.1
					c0-0.3,0.2-0.5,0.5-0.5l0,0c0.3,0,0.5,0.2,0.5,0.5l0,0c0,0.3-0.2,0.5-0.5,0.5l0,0C910.9,444.6,910.7,444.4,910.7,444.1z
					 M910.7,438.1c0-0.3,0.2-0.5,0.5-0.5l0,0c0.3,0,0.5,0.2,0.5,0.5l0,0c0,0.3-0.2,0.5-0.5,0.5l0,0
					C910.9,438.6,910.7,438.4,910.7,438.1z M910.7,432.1c0-0.3,0.2-0.5,0.5-0.5l0,0c0.3,0,0.5,0.2,0.5,0.5l0,0
					c0,0.3-0.2,0.5-0.5,0.5l0,0C910.9,432.6,910.7,432.4,910.7,432.1z M910.7,426.1c0-0.3,0.2-0.5,0.5-0.5l0,0
					c0.3,0,0.5,0.2,0.5,0.5l0,0c0,0.3-0.2,0.5-0.5,0.5l0,0C910.9,426.6,910.7,426.4,910.7,426.1z M910.7,420.1
					c0-0.3,0.2-0.5,0.5-0.5l0,0c0.3,0,0.5,0.2,0.5,0.5l0,0c0,0.3-0.2,0.5-0.5,0.5l0,0C910.9,420.6,910.7,420.4,910.7,420.1z
					 M910.7,414.1c0-0.3,0.2-0.5,0.5-0.5l0,0c0.3,0,0.5,0.2,0.5,0.5l0,0c0,0.3-0.2,0.5-0.5,0.5l0,0
					C910.9,414.6,910.7,414.4,910.7,414.1z M910.7,408.1c0-0.3,0.2-0.5,0.5-0.5l0,0c0.3,0,0.5,0.2,0.5,0.5l0,0
					c0,0.3-0.2,0.5-0.5,0.5l0,0C910.9,408.6,910.7,408.4,910.7,408.1z"/>
			</g>
			<g>
				<path class="st5" d="M853,462.1c0-0.3,0.2-0.5,0.5-0.5l0,0c0.3,0,0.5,0.2,0.5,0.5l0,0c0,0.3-0.2,0.5-0.5,0.5l0,0
					C853.2,462.6,853,462.4,853,462.1z M853,456.1c0-0.3,0.2-0.5,0.5-0.5l0,0c0.3,0,0.5,0.2,0.5,0.5l0,0c0,0.3-0.2,0.5-0.5,0.5l0,0
					C853.2,456.6,853,456.4,853,456.1z M853,450.1c0-0.3,0.2-0.5,0.5-0.5l0,0c0.3,0,0.5,0.2,0.5,0.5l0,0c0,0.3-0.2,0.5-0.5,0.5l0,0
					C853.2,450.6,853,450.4,853,450.1z M853,444.1c0-0.3,0.2-0.5,0.5-0.5l0,0c0.3,0,0.5,0.2,0.5,0.5l0,0c0,0.3-0.2,0.5-0.5,0.5l0,0
					C853.2,444.6,853,444.4,853,444.1z M853,438.1c0-0.3,0.2-0.5,0.5-0.5l0,0c0.3,0,0.5,0.2,0.5,0.5l0,0c0,0.3-0.2,0.5-0.5,0.5l0,0
					C853.2,438.6,853,438.4,853,438.1z M853,432.1c0-0.3,0.2-0.5,0.5-0.5l0,0c0.3,0,0.5,0.2,0.5,0.5l0,0c0,0.3-0.2,0.5-0.5,0.5l0,0
					C853.2,432.6,853,432.4,853,432.1z M853,426.1c0-0.3,0.2-0.5,0.5-0.5l0,0c0.3,0,0.5,0.2,0.5,0.5l0,0c0,0.3-0.2,0.5-0.5,0.5l0,0
					C853.2,426.6,853,426.4,853,426.1z M853,420.1c0-0.3,0.2-0.5,0.5-0.5l0,0c0.3,0,0.5,0.2,0.5,0.5l0,0c0,0.3-0.2,0.5-0.5,0.5l0,0
					C853.2,420.6,853,420.4,853,420.1z M853,414.1c0-0.3,0.2-0.5,0.5-0.5l0,0c0.3,0,0.5,0.2,0.5,0.5l0,0c0,0.3-0.2,0.5-0.5,0.5l0,0
					C853.2,414.6,853,414.4,853,414.1z M853,408.1c0-0.3,0.2-0.5,0.5-0.5l0,0c0.3,0,0.5,0.2,0.5,0.5l0,0c0,0.3-0.2,0.5-0.5,0.5l0,0
					C853.2,408.6,853,408.4,853,408.1z"/>
			</g>
		</g>
		<path class="st4" d="M836.5,250.7h-15v-16.7c0-2.8,2.3-5.1,5.1-5.1h9.9V250.7z"/>
		<path class="st4" d="M840.1,250.7h15v-16.7c0-2.8-2.3-5.1-5.1-5.1h-9.9V250.7z"/>
		<g>
			<path class="st5" d="M862.1,242.5h6.5c0.7,0,1.3,0.6,1.3,1.3v6.5h-6.5c-0.7,0-1.3-0.6-1.3-1.3V242.5z"/>
			<path class="st5" d="M869.2,232.1v6.5c0,0.7-0.6,1.3-1.3,1.3h-6.5v-6.5c0-0.7,0.6-1.3,1.3-1.3H869.2z"/>
		</g>
		<g>
			<path class="st5" d="M814.6,242.5h-6.5c-0.7,0-1.3,0.6-1.3,1.3v6.5h6.5c0.7,0,1.3-0.6,1.3-1.3V242.5z"/>
			<path class="st5" d="M807.4,232.1v6.5c0,0.7,0.6,1.3,1.3,1.3h6.5v-6.5c0-0.7-0.6-1.3-1.3-1.3H807.4z"/>
		</g>
		<path class="st4" d="M833.9,206.9c0-2.6,2.1-4.8,4.8-4.8s4.8,2.1,4.8,4.8"/>
		<g>
			<rect x="920.9" y="462.1" class="st1" width="2" height="30"/>
		</g>
		<g>
			<rect x="907.6" y="462.1" class="st1" width="2" height="30"/>
		</g>
		<g>
			<rect x="881.2" y="462.1" class="st1" width="2" height="30"/>
		</g>
		<g>
			<rect x="854.8" y="462.1" class="st1" width="2" height="30"/>
		</g>
		<g>
			<rect x="868" y="462.1" class="st1" width="2" height="30"/>
		</g>
		<g>
			<rect x="894.4" y="462.1" class="st1" width="2" height="30"/>
		</g>
		<g>
			<g>
				<polygon class="st1" points="752.3,540.6 751,539.1 841.7,461.1 927,461.1 927,463.1 842.4,463.1 				"/>
			</g>
		</g>
		<g>
			<g>
				<path class="st1" d="M767.9,370.4c-2.1,0-3.8-1.7-3.8-3.8c0-1-0.8-1.8-1.8-1.8h-3.2v-2h3.2c2.1,0,3.8,1.7,3.8,3.8
					c0,1,0.8,1.8,1.8,1.8s1.8-0.8,1.8-1.8v-0.1c0-2.1,1.7-3.8,3.8-3.8h5c2.1,0,3.8,1.7,3.8,3.8c0,1,0.8,1.8,1.8,1.8h2.7v2h-2.7
					c-2.1,0-3.8-1.7-3.8-3.8c0-1-0.8-1.8-1.8-1.8h-5c-1,0-1.8,0.8-1.8,1.8v0.1C771.7,368.6,770,370.4,767.9,370.4z"/>
			</g>
			<g>
				<path class="st1" d="M793.6,370.4c-2.1,0-3.8-1.7-3.8-3.8c0-1-0.8-1.8-1.8-1.8h-3.2v-2h3.2c2.1,0,3.8,1.7,3.8,3.8
					c0,1,0.8,1.8,1.8,1.8s1.8-0.8,1.8-1.8v-0.1c0-2.1,1.7-3.8,3.8-3.8h5c2.1,0,3.8,1.7,3.8,3.8c0,1,0.8,1.8,1.8,1.8h2.7v2h-2.7
					c-2.1,0-3.8-1.7-3.8-3.8c0-1-0.8-1.8-1.8-1.8h-5c-1,0-1.8,0.8-1.8,1.8v0.1C797.4,368.6,795.7,370.4,793.6,370.4z"/>
			</g>
			<g>
				<path class="st1" d="M819.3,370.4c-2.1,0-3.8-1.7-3.8-3.8c0-1-0.8-1.8-1.8-1.8h-3.2v-2h3.2c2.1,0,3.8,1.7,3.8,3.8
					c0,1,0.8,1.8,1.8,1.8s1.8-0.8,1.8-1.8v-0.1c0-2.1,1.7-3.8,3.8-3.8h5c2.1,0,3.8,1.7,3.8,3.8c0,1,0.8,1.8,1.8,1.8h2.7v2h-2.7
					c-2.1,0-3.8-1.7-3.8-3.8c0-1-0.8-1.8-1.8-1.8h-5c-1,0-1.8,0.8-1.8,1.8v0.1C823.2,368.6,821.5,370.4,819.3,370.4z"/>
			</g>
			<g>
				<path class="st1" d="M845.1,370.4c-2.1,0-3.8-1.7-3.8-3.8c0-1-0.8-1.8-1.8-1.8h-3.2v-2h3.2c2.1,0,3.8,1.7,3.8,3.8
					c0,1,0.8,1.8,1.8,1.8c1,0,1.8-0.8,1.8-1.8v-0.1c0-2.1,1.7-3.8,3.8-3.8h5c2.1,0,3.8,1.7,3.8,3.8c0,1,0.8,1.8,1.8,1.8h2.7v2h-2.7
					c-2.1,0-3.8-1.7-3.8-3.8c0-1-0.8-1.8-1.8-1.8h-5c-1,0-1.8,0.8-1.8,1.8v0.1C848.9,368.6,847.2,370.4,845.1,370.4z"/>
			</g>
			<g>
				<path class="st1" d="M870.8,370.4c-2.1,0-3.8-1.7-3.8-3.8c0-1-0.8-1.8-1.8-1.8h-3.2v-2h3.2c2.1,0,3.8,1.7,3.8,3.8
					c0,1,0.8,1.8,1.8,1.8s1.8-0.8,1.8-1.8v-0.1c0-2.1,1.7-3.8,3.8-3.8h5c2.1,0,3.8,1.7,3.8,3.8c0,1,0.8,1.8,1.8,1.8h2.7v2h-2.7
					c-2.1,0-3.8-1.7-3.8-3.8c0-1-0.8-1.8-1.8-1.8h-5c-1,0-1.8,0.8-1.8,1.8v0.1C874.7,368.6,872.9,370.4,870.8,370.4z"/>
			</g>
			<g>
				<path class="st1" d="M896.6,370.4c-2.1,0-3.8-1.7-3.8-3.8c0-1-0.8-1.8-1.8-1.8h-3.2v-2h3.2c2.1,0,3.8,1.7,3.8,3.8
					c0,1,0.8,1.8,1.8,1.8s1.8-0.8,1.8-1.8v-0.1c0-2.1,1.7-3.8,3.8-3.8h5c2.1,0,3.8,1.7,3.8,3.8c0,1,0.8,1.8,1.8,1.8h2.7v2h-2.7
					c-2.1,0-3.8-1.7-3.8-3.8c0-1-0.8-1.8-1.8-1.8h-5c-1,0-1.8,0.8-1.8,1.8v0.1C900.4,368.6,898.7,370.4,896.6,370.4z"/>
			</g>
		</g>
	</g>
</g>
<g>
	<circle class="st4" cx="1089.5" cy="456.7" r="22.7"/>
	<circle class="st4" cx="1089.5" cy="493.1" r="33"/>
	<g>
		<rect x="1088" y="456.5" class="st3" width="3" height="88.6"/>
	</g>
	<g>
		<rect x="1088.4" y="471.5" transform="matrix(0.779 -0.627 0.627 0.779 -54.9221 790.15)" class="st3" width="10.2" height="3"/>
	</g>
	<g>
		
			<rect x="1083.3" y="501.4" transform="matrix(0.6809 -0.7324 0.7324 0.6809 -25.7349 956.5781)" class="st3" width="3" height="12.8"/>
	</g>
</g>
</svg>
