<?xml version="1.0" encoding="utf-8"?>
<!-- Generator: Adobe Illustrator 23.0.1, SVG Export Plug-In . SVG Version: 6.00 Build 0)  -->
<!DOCTYPE svg PUBLIC "-//W3C//DTD SVG 1.1//EN" "http://www.w3.org/Graphics/SVG/1.1/DTD/svg11.dtd" [
	<!ENTITY ns_extend "http://ns.adobe.com/Extensibility/1.0/">
	<!ENTITY ns_ai "http://ns.adobe.com/AdobeIllustrator/10.0/">
	<!ENTITY ns_graphs "http://ns.adobe.com/Graphs/1.0/">
	<!ENTITY ns_vars "http://ns.adobe.com/Variables/1.0/">
	<!ENTITY ns_imrep "http://ns.adobe.com/ImageReplacement/1.0/">
	<!ENTITY ns_sfw "http://ns.adobe.com/SaveForWeb/1.0/">
	<!ENTITY ns_custom "http://ns.adobe.com/GenericCustomNamespace/1.0/">
	<!ENTITY ns_adobe_xpath "http://ns.adobe.com/XPath/1.0/">
]>
<svg version="1.1" id="Isolation_Mode" xmlns:x="&ns_extend;" xmlns:i="&ns_ai;" xmlns:graph="&ns_graphs;"
	 xmlns="http://www.w3.org/2000/svg" xmlns:xlink="http://www.w3.org/1999/xlink" x="0px" y="0px" width="1000px" height="389.3px"
	 viewBox="0 0 1000 389.3" style="enable-background:new 0 0 1000 389.3;" xml:space="preserve">
<style type="text/css">
	.st0{fill:#EFEAF3;}
	.st1{fill:#4C1C7B;}
	.st2{fill:#FFFFFF;}
	.st3{fill:#FF7555;}
	.st4{fill:#231336;}
	.st5{fill:#281E4A;}
</style>
<metadata>
	<sfw  xmlns="&ns_sfw;">
		<slices></slices>
		<sliceSourceBounds  bottomLeftOrigin="true" height="389.3" width="1000" x="3016.7" y="-16.9"></sliceSourceBounds>
	</sfw>
</metadata>
<path class="st0" d="M0,372.3c0.9-39.7,34.1-72.7,73.7-73.5c0.3,0,0.7,0,1,0c20.6-0.1,39.1-11.1,48.9-29.2
	c24-44.4,70.9-74.5,124.9-74.5c0.1,0,0.2,0,0.3,0c18.4,0,35.9-6.8,48.9-19.8c13.6-13.7,32.5-22.2,53.3-22.2c2.6,0,5.1,0.1,7.6,0.4
	c27,2.7,54.5,0.7,79.4-9.9c21-9,44.1-14,68.4-14c35.4,0,68.2,10.5,95.7,28.6c33.2,21.9,74,30.8,112.2,19.7
	c12.6-3.7,25.9-5.6,39.6-5.6c67.1,0,123.2,46.5,138,109.1c3.3,14,16.6,22.9,31,22.5c0.3,0,0.6,0,0.8,0c40.5-0.5,75.1,32.7,76.2,73.1
	L0,372.3z"/>
<path class="st0" d="M449.4,71.9c-0.3-11.7-10.1-21.5-21.8-21.8c-0.1,0-0.2,0-0.3,0c-6.1,0-11.6-3.3-14.5-8.7
	c-7.1-13.1-21-22.1-37-22.1c0,0-0.1,0-0.1,0c-5.4,0-10.6-2-14.5-5.9c-4-4.1-9.6-6.6-15.8-6.6c-0.8,0-1.5,0-2.2,0.1
	c-8,0.8-16.1,0.2-23.5-2.9C313.4,1.5,306.6,0,299.4,0c-10.5,0-20.2,3.1-28.3,8.5c-9.8,6.5-21.9,9.1-33.2,5.8
	c-3.7-1.1-7.7-1.7-11.7-1.7c-19.9,0-36.5,13.8-40.9,32.3c-1,4.1-4.9,6.8-9.2,6.7c-0.1,0-0.2,0-0.2,0c-12-0.2-22.2,9.7-22.6,21.6
	L449.4,71.9z"/>
<g>
	<circle class="st1" cx="139.4" cy="232.4" r="37.6"/>
	<circle class="st1" cx="139.4" cy="194.8" r="21.7"/>
	<circle class="st1" cx="139.4" cy="281.4" r="49"/>
	<g>
		<rect x="136.4" y="248.1" class="st2" width="6" height="129.1"/>
	</g>
	<g>
		
			<rect x="127.2" y="275.2" transform="matrix(0.1538 -0.9881 0.9881 0.1538 -170.8507 369.3583)" class="st2" width="6" height="18.5"/>
	</g>
</g>
<g>
	<circle class="st3" cx="248.3" cy="249.9" r="39.8"/>
	<g>
		<rect x="245.1" y="249.9" class="st4" width="6" height="126.8"/>
	</g>
	<path class="st1" d="M248.1,271.8"/>
	<g>
		
			<rect x="247.4" y="272.4" transform="matrix(0.921 -0.3897 0.3897 0.921 -87.0165 121.7477)" class="st4" width="18.3" height="6"/>
	</g>
</g>
<g>
	<g>
		<circle class="st3" cx="657.4" cy="357.9" r="17.3"/>
		<g>
			<rect x="655.9" y="347.3" class="st5" width="3" height="21.2"/>
		</g>
		<g>
			<rect x="646.7" y="356.4" class="st5" width="21.2" height="3"/>
		</g>
	</g>
	<g>
		<circle class="st3" cx="618.4" cy="357.9" r="17.3"/>
		<g>
			<rect x="616.9" y="347.3" class="st5" width="3" height="21.2"/>
		</g>
		<g>
			<rect x="607.8" y="356.4" class="st5" width="21.2" height="3"/>
		</g>
	</g>
	<g>
		<circle class="st3" cx="579.5" cy="357.9" r="17.3"/>
		<g>
			<rect x="578" y="347.3" class="st5" width="3" height="21.2"/>
		</g>
		<g>
			<rect x="568.9" y="356.4" class="st5" width="21.2" height="3"/>
		</g>
	</g>
	<g>
		<circle class="st3" cx="453.1" cy="357.9" r="17.3"/>
		<g>
			<rect x="451.6" y="347.3" class="st5" width="3" height="21.2"/>
		</g>
		<g>
			<rect x="442.5" y="356.4" class="st5" width="21.2" height="3"/>
		</g>
	</g>
	<g>
		<circle class="st3" cx="414.2" cy="357.9" r="17.3"/>
		<g>
			<rect x="412.7" y="347.3" class="st5" width="3" height="21.2"/>
		</g>
		<g>
			<rect x="403.6" y="356.4" class="st5" width="21.2" height="3"/>
		</g>
	</g>
	<g>
		<circle class="st3" cx="375.3" cy="357.9" r="17.3"/>
		<g>
			<rect x="373.8" y="347.3" class="st5" width="3" height="21.2"/>
		</g>
		<g>
			<rect x="364.6" y="356.4" class="st5" width="21.2" height="3"/>
		</g>
	</g>
	<polygon class="st1" points="726.5,350.8 341.4,350.8 327.2,325.8 737.1,325.8 	"/>
	<rect x="387.2" y="195.1" class="st4" width="295.5" height="21.4"/>
	<path class="st1" d="M707.5,196H371.4l0,0c10.1-5,21.3-7.6,32.5-7.6h271C686.2,188.4,697.4,191,707.5,196L707.5,196z"/>
	<rect x="515.8" y="234.6" class="st3" width="175.2" height="92.8"/>
	<polygon class="st4" points="345.2,327.4 484.5,327.4 441.2,284.4 345.2,284.4 	"/>
	<g>
		<rect x="729.5" y="234.6" class="st3" width="3" height="92.8"/>
	</g>
	<g>
		<rect x="342.4" y="234.6" class="st3" width="3" height="92.8"/>
	</g>
	<g>
		<rect x="382.8" y="234.6" class="st3" width="3" height="92.8"/>
	</g>
	<g>
		<rect x="423.2" y="234.6" class="st3" width="3" height="92.8"/>
	</g>
	<g>
		<rect x="463.5" y="234.6" class="st3" width="3" height="92.8"/>
	</g>
	<g>
		<path class="st4" d="M675.7,316H531.1v-31.4h144.6V316z M534.1,313h138.6v-25.4H534.1V313z"/>
	</g>
	<path class="st4" d="M681.8,246.8c-4.2-1.4-8.8-2.3-13.6-2.3c-4.8,0-9.4,0.8-13.6,2.3v29.8h27.2V246.8z"/>
	<path class="st4" d="M639.6,246.8c-4.2-1.4-8.8-2.3-13.6-2.3c-4.8,0-9.4,0.8-13.6,2.3v29.8h27.2V246.8z"/>
	<path class="st4" d="M597.3,246.8c-4.2-1.4-8.8-2.3-13.6-2.3c-4.8,0-9.4,0.8-13.6,2.3v29.8h27.2V246.8z"/>
	<path class="st4" d="M555.1,246.8c-4.2-1.4-8.8-2.3-13.6-2.3c-4.8,0-9.4,0.8-13.6,2.3v29.8h27.2V246.8z"/>
	<polygon class="st4" points="691.3,351.2 518.1,351.2 508.7,326 700.7,326 	"/>
	<path class="st1" d="M760.7,236.5H314.2l0,0c28.4-14.1,59.8-21.4,91.5-21.4h263.4C700.9,215.1,732.2,222.4,760.7,236.5L760.7,236.5
		z"/>
	<g>
		<rect x="529" y="336" class="st3" width="145.8" height="3"/>
	</g>
</g>
<g>
	<circle class="st4" cx="823.3" cy="269.9" r="39.6"/>
	<circle class="st4" cx="823.3" cy="224.1" r="29.3"/>
	<g>
		<rect x="820.3" y="220.6" class="st3" width="6" height="168.7"/>
	</g>
	<path class="st1" d="M823.3,272.7"/>
	<g>
		
			<rect x="822.6" y="273.3" transform="matrix(0.921 -0.3897 0.3897 0.921 -41.9201 345.931)" class="st3" width="18.3" height="6"/>
	</g>
</g>
<g>
	<circle class="st1" cx="940" cy="283.5" r="48.6"/>
	<g>
		<rect x="936.8" y="283.5" class="st4" width="6" height="99.5"/>
	</g>
	<path class="st1" d="M939.8,310.2"/>
	<g>
		<rect x="939" y="311.6" transform="matrix(0.921 -0.3897 0.3897 0.921 -47.4879 395.1181)" class="st4" width="22.4" height="6"/>
	</g>
</g>
</svg>
