<?xml version="1.0" encoding="utf-8"?>
<!-- Generator: Adobe Illustrator 23.0.1, SVG Export Plug-In . SVG Version: 6.00 Build 0)  -->
<!DOCTYPE svg PUBLIC "-//W3C//DTD SVG 1.1//EN" "http://www.w3.org/Graphics/SVG/1.1/DTD/svg11.dtd" [
	<!ENTITY ns_extend "http://ns.adobe.com/Extensibility/1.0/">
	<!ENTITY ns_ai "http://ns.adobe.com/AdobeIllustrator/10.0/">
	<!ENTITY ns_graphs "http://ns.adobe.com/Graphs/1.0/">
	<!ENTITY ns_vars "http://ns.adobe.com/Variables/1.0/">
	<!ENTITY ns_imrep "http://ns.adobe.com/ImageReplacement/1.0/">
	<!ENTITY ns_sfw "http://ns.adobe.com/SaveForWeb/1.0/">
	<!ENTITY ns_custom "http://ns.adobe.com/GenericCustomNamespace/1.0/">
	<!ENTITY ns_adobe_xpath "http://ns.adobe.com/XPath/1.0/">
]>
<svg version="1.1" id="Isolation_Mode" xmlns:x="&ns_extend;" xmlns:i="&ns_ai;" xmlns:graph="&ns_graphs;"
	 xmlns="http://www.w3.org/2000/svg" xmlns:xlink="http://www.w3.org/1999/xlink" x="0px" y="0px" width="284px" height="99.1px"
	 viewBox="0 0 284 99.1" style="enable-background:new 0 0 284 99.1;" xml:space="preserve">
<style type="text/css">
	.st0{fill:#4C1C7B;}
	.st1{fill:#231336;}
	.st2{fill:#FFFFFF;}
	.st3{fill:#FF7555;}
	.st4{fill:#281E4A;}
</style>
<metadata>
	<sfw  xmlns="&ns_sfw;">
		<slices></slices>
		<sliceSourceBounds  bottomLeftOrigin="true" height="99.1" width="284" x="2890.1" y="-725"></sliceSourceBounds>
	</sfw>
</metadata>
<g>
	<g>
		<polygon class="st0" points="21.8,90.1 18.8,87.2 6.9,99.1 12.9,99.1 		"/>
		<polygon class="st0" points="128.8,87.2 125.8,90.1 134.8,99.1 140.8,99.1 		"/>
	</g>
	<g>
		<rect class="st0" width="147.7" height="90.1"/>
		
			<rect x="34.7" y="-22.9" transform="matrix(-1.836970e-16 1 -1 -1.836970e-16 118.868 -28.8006)" class="st1" width="78.2" height="135.8"/>
		<g>
			<path class="st2" d="M63.9,18.8c7.6,0,13.5,5.7,13.5,12.8c0,3.5-1.5,6.6-3.9,8.8c4.7,2.9,7.6,7.8,7.6,13.4
				c0,9.1-7.5,16.3-17.2,16.3c-9.8,0-17.2-7.2-17.2-16.3c0-5.6,3-10.5,7.6-13.4c-2.2-2.1-3.7-5.3-3.7-8.8
				C50.6,24.5,56.3,18.8,63.9,18.8z M63.9,63.2c5.9,0,10.3-4.2,10.3-9.5c0-5.2-4.4-9.6-10.3-9.6h-0.5c-5.6,0.2-9.8,4.6-9.8,9.6
				C53.6,59,58,63.2,63.9,63.2z M63.5,37.7h0.6c3.7-0.2,6.3-2.8,6.3-6.1c0-3.3-2.8-5.9-6.6-5.9c-3.7,0-6.5,2.6-6.5,5.9
				C57.4,34.9,60,37.5,63.5,37.7z"/>
			<path class="st2" d="M92.8,69.3h-4V37h4v18.7l7.2-7.3h5.6l-9,9.1l11.1,11.9h-5.4l-9.6-10.2V69.3z"/>
		</g>
	</g>
	<g>
		<polygon class="st3" points="91.9,24.4 90.4,23 98.7,14.8 129.5,14.8 129.5,16.8 99.5,16.8 		"/>
	</g>
	<g>
		<polygon class="st3" points="37.4,77.3 16,77.3 16,75.3 36.6,75.3 41.8,70.1 43.2,71.5 		"/>
	</g>
	<polygon class="st3" points="15.3,23.6 15.3,17.6 21.3,17.6 	"/>
	<g>
		<path class="st3" d="M29.9,34.4H20v-9.9h9.9V34.4z M22,32.4h5.9v-5.9H22V32.4z"/>
	</g>
	<g>
		<rect x="107.9" y="24" class="st3" width="13.2" height="2"/>
	</g>
	<g>
		<rect x="19.8" y="67.2" class="st3" width="13.2" height="2"/>
	</g>
</g>
<g>
	<rect x="174.3" y="18.4" class="st0" width="109.6" height="74.6"/>
	<rect x="184.7" y="92" class="st2" width="3.3" height="7.1"/>
	<rect x="270.7" y="92" class="st2" width="3.3" height="7.1"/>
	<rect x="179.8" y="28.4" class="st4" width="67" height="56"/>
	<rect x="253.4" y="18.4" class="st1" width="30.5" height="74.6"/>
	<rect x="253.4" y="25.9" class="st4" width="30.5" height="8.8"/>
	<g>
		<rect x="259.4" y="39.7" class="st3" width="4.4" height="1.5"/>
		<rect x="266.8" y="39.7" class="st3" width="4.4" height="1.5"/>
		<rect x="274.2" y="39.7" class="st3" width="4.4" height="1.5"/>
		<rect x="259.4" y="44.8" class="st3" width="4.4" height="1.5"/>
		<rect x="266.8" y="44.8" class="st3" width="4.4" height="1.5"/>
		<rect x="274.2" y="44.8" class="st3" width="4.4" height="1.5"/>
		<rect x="259.4" y="50" class="st3" width="4.4" height="1.5"/>
		<rect x="266.8" y="50" class="st3" width="4.4" height="1.5"/>
		<rect x="274.2" y="50" class="st3" width="4.4" height="1.5"/>
		<rect x="259.4" y="55.1" class="st3" width="4.4" height="1.5"/>
		<rect x="266.8" y="55.1" class="st3" width="4.4" height="1.5"/>
		<rect x="274.2" y="55.1" class="st3" width="4.4" height="1.5"/>
	</g>
	<g>
		<rect x="260.2" y="66" class="st1" width="17.8" height="1"/>
	</g>
	<g>
		<rect x="260.2" y="84.3" class="st1" width="17.8" height="1"/>
	</g>
	<g>
		<rect x="260.2" y="73.3" class="st1" width="17.8" height="1"/>
	</g>
	<g>
		<rect x="260.2" y="80.7" class="st1" width="17.8" height="1"/>
	</g>
	<g>
		<rect x="260.2" y="69.7" class="st1" width="17.8" height="1"/>
	</g>
	<g>
		<rect x="260.2" y="77" class="st1" width="17.8" height="1"/>
	</g>
	<path class="st1" d="M197.2,34.6c-6,0.6-10.9,5.2-11.8,11.2c-0.5,3.7-0.8,7.7-0.8,11.8c0,2.9,0.1,5.7,0.4,8.4
		c0.6,6.3,5.5,11.3,11.8,12c5.6,0.6,11.6,0.9,17.7,0.9c5.2,0,10.2-0.2,15.1-0.7c6.4-0.6,11.4-5.6,12.1-12c0.3-2.8,0.4-5.7,0.4-8.7
		c0-4.2-0.3-8.3-0.9-12.1c-0.9-6.1-5.9-10.7-12-11.2c-4.7-0.4-9.5-0.6-14.5-0.6C208.6,33.7,202.7,34,197.2,34.6z"/>
	<g>
		<path class="st2" d="M213.1,66.7h-3.2v-4.8h-12.2l13-18.6h2.4v15.6h3.4v3h-3.4V66.7z M209.9,58.9v-9.8l-6.7,9.8H209.9z"/>
		<path class="st2" d="M221.5,66.7h-1.9V51.5h1.9v8.8l3.4-3.4h2.6l-4.2,4.3l5.2,5.6H226l-4.5-4.8V66.7z"/>
	</g>
</g>
</svg>
